  0
SECTION
  2
HEADER
  9
$ACADVER
  1
AC1009
  9
$DWGCODEPAGE
  3
ansi_1252
  9
$INSBASE
 10
0.0
 20
0.0
 30
0.0
  9
$EXTMIN
 10
-70.0
 20
-215.0
 30
3.0
  9
$EXTMAX
 10
30.0
 20
-115.0
 30
3.0
  9
$LIMMIN
 10
0.0
 20
0.0
  9
$LIMMAX
 10
12.0
 20
9.0
  9
$ORTHOMODE
 70
     0
  9
$REGENMODE
 70
     1
  9
$FILLMODE
 70
     1
  9
$QTEXTMODE
 70
     0
  9
$MIRRTEXT
 70
     1
  9
$DRAGMODE
 70
     2
  9
$LTSCALE
 40
1.0
  9
$OSMODE
 70
    37
  9
$ATTMODE
 70
     1
  9
$TEXTSIZE
 40
0.2
  9
$TRACEWID
 40
0.05
  9
$TEXTSTYLE
  7
STANDARD
  9
$CLAYER
  8
DEFAULT
  9
$CELTYPE
  6
BYLAYER
  9
$CECOLOR
 62
   256
  9
$DIMSCALE
 40
1.0
  9
$DIMASZ
 40
0.18
  9
$DIMEXO
 40
0.0625
  9
$DIMDLI
 40
0.38
  9
$DIMRND
 40
0.0
  9
$DIMDLE
 40
0.0
  9
$DIMEXE
 40
0.18
  9
$DIMTP
 40
0.0
  9
$DIMTM
 40
0.0
  9
$DIMTXT
 40
0.18
  9
$DIMCEN
 40
0.09
  9
$DIMTSZ
 40
0.0
  9
$DIMTOL
 70
     0
  9
$DIMLIM
 70
     0
  9
$DIMTIH
 70
     1
  9
$DIMTOH
 70
     1
  9
$DIMSE1
 70
     0
  9
$DIMSE2
 70
     0
  9
$DIMTAD
 70
     0
  9
$DIMZIN
 70
     0
  9
$DIMBLK
  1

  9
$DIMASO
 70
     1
  9
$DIMSHO
 70
     1
  9
$DIMPOST
  1

  9
$DIMAPOST
  1

  9
$DIMALT
 70
     0
  9
$DIMALTD
 70
     2
  9
$DIMALTF
 40
25.4
  9
$DIMLFAC
 40
1.0
  9
$DIMTOFL
 70
     0
  9
$DIMTVP
 40
0.0
  9
$DIMTIX
 70
     0
  9
$DIMSOXD
 70
     0
  9
$DIMSAH
 70
     0
  9
$DIMBLK1
  1

  9
$DIMBLK2
  1

  9
$DIMSTYLE
  2
STANDARD_ACAD
  9
$DIMCLRD
 70
     0
  9
$DIMCLRE
 70
     0
  9
$DIMCLRT
 70
     0
  9
$DIMTFAC
 40
1.0
  9
$DIMGAP
 40
0.09
  9
$LUNITS
 70
     2
  9
$LUPREC
 70
     3
  9
$SKETCHINC
 40
0.1
  9
$FILLETRAD
 40
0.0
  9
$AUNITS
 70
     0
  9
$AUPREC
 70
     0
  9
$MENU
  1
.
  9
$ELEVATION
 40
0.0
  9
$PELEVATION
 40
0.0
  9
$THICKNESS
 40
0.0
  9
$LIMCHECK
 70
     0
  9
$CHAMFERA
 40
0.0
  9
$CHAMFERB
 40
0.0
  9
$SKPOLY
 70
     0
  9
$TDCREATE
 40
2460842.793994873
  9
$TDUPDATE
 40
2460842.794009213
  9
$TDINDWG
 40
0.0000000116
  9
$TDUSRTIMER
 40
0.0000000116
  9
$USRTIMER
 70
     1
  9
$ANGBASE
 50
0.0
  9
$ANGDIR
 70
     0
  9
$PDMODE
 70
     0
  9
$PDSIZE
 40
0.0
  9
$PLINEWID
 40
0.0
  9
$COORDS
 70
     1
  9
$SPLFRAME
 70
     0
  9
$SPLINETYPE
 70
     6
  9
$SPLINESEGS
 70
     8
  9
$ATTDIA
 70
     0
  9
$ATTREQ
 70
     1
  9
$HANDLING
 70
     1
  9
$HANDSEED
  5
125
  9
$SURFTAB1
 70
     6
  9
$SURFTAB2
 70
     6
  9
$SURFTYPE
 70
     6
  9
$SURFU
 70
     6
  9
$SURFV
 70
     6
  9
$UCSNAME
  2

  9
$UCSORG
 10
0.0
 20
0.0
 30
0.0
  9
$UCSXDIR
 10
1.0
 20
0.0
 30
0.0
  9
$UCSYDIR
 10
0.0
 20
1.0
 30
0.0
  9
$PUCSNAME
  2

  9
$PUCSORG
 10
0.0
 20
0.0
 30
0.0
  9
$PUCSXDIR
 10
1.0
 20
0.0
 30
0.0
  9
$PUCSYDIR
 10
0.0
 20
1.0
 30
0.0
  9
$USERI1
 70
     0
  9
$USERI2
 70
     0
  9
$USERI3
 70
     0
  9
$USERI4
 70
     0
  9
$USERI5
 70
     0
  9
$USERR1
 40
0.0
  9
$USERR2
 40
0.0
  9
$USERR3
 40
0.0
  9
$USERR4
 40
0.0
  9
$USERR5
 40
0.0
  9
$WORLDVIEW
 70
     1
  9
$SHADEDGE
 70
     3
  9
$SHADEDIF
 70
    70
  9
$TILEMODE
 70
     1
  9
$MAXACTVP
 70
    64
  9
$PLIMCHECK
 70
     0
  9
$PEXTMIN
 10
1.000000000000000E+20
 20
1.000000000000000E+20
 30
1.000000000000000E+20
  9
$PEXTMAX
 10
-1.000000000000000E+20
 20
-1.000000000000000E+20
 30
-1.000000000000000E+20
  9
$PLIMMIN
 10
0.0
 20
0.0
  9
$PLIMMAX
 10
12.0
 20
9.0
  9
$UNITMODE
 70
     0
  9
$VISRETAIN
 70
     1
  9
$PLINEGEN
 70
     0
  9
$PSLTSCALE
 70
     1
  0
ENDSEC
  0
SECTION
  2
TABLES
  0
TABLE
  2
VPORT
 70
     1
  0
VPORT
  2
*ACTIVE
 70
     0
 10
0.0
 20
0.0
 11
1.0
 21
1.0
 12
10.42990654205607
 22
4.5
 13
0.0
 23
0.0
 14
0.5
 24
0.5
 15
0.5
 25
0.5
 16
0.0
 26
0.0
 36
1.0
 17
0.0
 27
0.0
 37
0.0
 40
9.0
 41
1.972972972850329
 42
50.0
 43
0.0
 44
0.0
 50
0.0
 51
0.0
 71
     0
 72
   100
 73
     1
 74
     3
 75
     0
 76
     0
 77
     0
 78
     0
  0
ENDTAB
  0
TABLE
  2
LTYPE
 70
     1
  0
LTYPE
  2
CONTINUOUS
 70
     0
  3
Solid line
 72
    65
 73
     0
 40
0.0
  0
ENDTAB
  0
TABLE
  2
LAYER
 70
     2
  0
LAYER
  2
0
 70
     0
 62
     7
  6
CONTINUOUS
  0
LAYER
  2
DEFAULT
 70
     0
 62
     7
  6
CONTINUOUS
  0
ENDTAB
  0
TABLE
  2
STYLE
 70
     1
  0
STYLE
  2
STANDARD
 70
     0
 40
0.0
 41
1.0
 50
0.0
 71
     0
 42
0.2
  3
txt
  4

  0
ENDTAB
  0
TABLE
  2
VIEW
 70
     0
  0
ENDTAB
  0
TABLE
  2
UCS
 70
     0
  0
ENDTAB
  0
TABLE
  2
APPID
 70
     2
  0
APPID
  2
ACAD
 70
     0
  0
APPID
  2
RHINO
 70
     0
  0
ENDTAB
  0
TABLE
  2
DIMSTYLE
 70
     1
  0
DIMSTYLE
  2
STANDARD_ACAD
 70
     0
  3

  4

  5

  6

  7

 40
1.0
 41
0.18
 42
0.0625
 43
0.38
 44
0.18
 45
0.0
 46
0.0
 47
0.0
 48
0.0
140
0.18
141
0.09
142
0.0
143
25.4
144
1.0
145
0.0
146
1.0
147
0.09
 71
     0
 72
     0
 73
     1
 74
     1
 75
     0
 76
     0
 77
     0
 78
     0
170
     0
171
     2
172
     0
173
     0
174
     0
175
     0
176
     0
177
     0
178
     0
  0
ENDTAB
  0
ENDSEC
  0
SECTION
  2
BLOCKS
  0
BLOCK
  8
0
  2
$MODEL_SPACE
 70
     0
 10
0.0
 20
0.0
 30
0.0
  3
$MODEL_SPACE
  1

  0
ENDBLK
  5
21
  8
0
  0
BLOCK
 67
     1
  8
0
  2
$PAPER_SPACE
 70
     0
 10
0.0
 20
0.0
 30
0.0
  3
$PAPER_SPACE
  1

  0
ENDBLK
  5
1D
 67
     1
  8
0
  0
ENDSEC
  0
SECTION
  2
ENTITIES
  0
CIRCLE
  5
60
  8
DEFAULT
 10
64.99999999999999
 20
-120.0
 30
-3.0
 40
1.499999999999986
210
0.0
220
0.0
230
-1.0
  0
CIRCLE
  5
61
  8
DEFAULT
 10
54.99999999999998
 20
-120.0
 30
-3.0
 40
1.499999999999979
210
0.0
220
0.0
230
-1.0
  0
CIRCLE
  5
62
  8
DEFAULT
 10
45.0
 20
-120.0
 30
-3.0
 40
1.5
210
0.0
220
0.0
230
-1.0
  0
CIRCLE
  5
63
  8
DEFAULT
 10
34.99999999999999
 20
-120.0
 30
-3.0
 40
1.499999999999986
210
0.0
220
0.0
230
-1.0
  0
CIRCLE
  5
64
  8
DEFAULT
 10
24.99999999999999
 20
-120.0
 30
-3.0
 40
1.499999999999993
210
0.0
220
0.0
230
-1.0
  0
CIRCLE
  5
65
  8
DEFAULT
 10
64.99999999999999
 20
-130.0
 30
-3.0
 40
1.499999999999986
210
0.0
220
0.0
230
-1.0
  0
CIRCLE
  5
66
  8
DEFAULT
 10
45.0
 20
-130.0
 30
-3.0
 40
1.5
210
0.0
220
0.0
230
-1.0
  0
CIRCLE
  5
67
  8
DEFAULT
 10
65.0
 20
-140.0
 30
-3.0
 40
1.5
210
0.0
220
0.0
230
-1.0
  0
CIRCLE
  5
68
  8
DEFAULT
 10
44.99999999999999
 20
-140.0
 30
-3.0
 40
1.499999999999986
210
0.0
220
0.0
230
-1.0
  0
CIRCLE
  5
69
  8
DEFAULT
 10
34.99999999999999
 20
-140.0
 30
-3.0
 40
1.499999999999986
210
0.0
220
0.0
230
-1.0
  0
CIRCLE
  5
6A
  8
DEFAULT
 10
24.99999999999999
 20
-140.0
 30
-3.0
 40
1.499999999999993
210
0.0
220
0.0
230
-1.0
  0
CIRCLE
  5
6B
  8
DEFAULT
 10
64.99999999999999
 20
-150.0
 30
-3.0
 40
1.499999999999986
210
0.0
220
0.0
230
-1.0
  0
CIRCLE
  5
6C
  8
DEFAULT
 10
54.99999999999999
 20
-150.0
 30
-3.0
 40
1.499999999999986
210
0.0
220
0.0
230
-1.0
  0
CIRCLE
  5
6D
  8
DEFAULT
 10
44.99999999999999
 20
-150.0
 30
-3.0
 40
1.499999999999986
210
0.0
220
0.0
230
-1.0
  0
CIRCLE
  5
6E
  8
DEFAULT
 10
25.0
 20
-150.0
 30
-3.0
 40
1.499999999999996
210
0.0
220
0.0
230
-1.0
  0
CIRCLE
  5
6F
  8
DEFAULT
 10
44.99999999999999
 20
-160.0
 30
-3.0
 40
1.499999999999986
210
0.0
220
0.0
230
-1.0
  0
CIRCLE
  5
70
  8
DEFAULT
 10
24.99999999999999
 20
-160.0
 30
-3.0
 40
1.499999999999986
210
0.0
220
0.0
230
-1.0
  0
CIRCLE
  5
71
  8
DEFAULT
 10
25.0
 20
-210.0
 30
-3.0
 40
1.500000000000004
210
0.0
220
0.0
230
-1.0
  0
CIRCLE
  5
72
  8
DEFAULT
 10
45.0
 20
-210.0
 30
-3.0
 40
1.5
210
0.0
220
0.0
230
-1.0
  0
CIRCLE
  5
73
  8
DEFAULT
 10
25.0
 20
-200.0
 30
-3.0
 40
1.500000000000004
210
0.0
220
0.0
230
-1.0
  0
CIRCLE
  5
74
  8
DEFAULT
 10
45.00000000000001
 20
-200.0
 30
-3.0
 40
1.500000000000014
210
0.0
220
0.0
230
-1.0
  0
CIRCLE
  5
75
  8
DEFAULT
 10
55.00000000000001
 20
-200.0
 30
-3.0
 40
1.500000000000007
210
0.0
220
0.0
230
-1.0
  0
CIRCLE
  5
76
  8
DEFAULT
 10
64.99999999999999
 20
-200.0
 30
-3.0
 40
1.499999999999986
210
0.0
220
0.0
230
-1.0
  0
CIRCLE
  5
77
  8
DEFAULT
 10
25.0
 20
-190.0
 30
-3.0
 40
1.500000000000004
210
0.0
220
0.0
230
-1.0
  0
CIRCLE
  5
78
  8
DEFAULT
 10
34.99999999999999
 20
-190.0
 30
-3.0
 40
1.499999999999993
210
0.0
220
0.0
230
-1.0
  0
CIRCLE
  5
79
  8
DEFAULT
 10
45.00000000000001
 20
-190.0
 30
-3.0
 40
1.500000000000007
210
0.0
220
0.0
230
-1.0
  0
CIRCLE
  5
7A
  8
DEFAULT
 10
65.00000000000001
 20
-190.0
 30
-3.0
 40
1.500000000000014
210
0.0
220
0.0
230
-1.0
  0
CIRCLE
  5
7B
  8
DEFAULT
 10
44.99999999999999
 20
-180.0
 30
-3.0
 40
1.499999999999986
210
0.0
220
0.0
230
-1.0
  0
CIRCLE
  5
7C
  8
DEFAULT
 10
64.99999999999999
 20
-180.0
 30
-3.0
 40
1.499999999999986
210
0.0
220
0.0
230
-1.0
  0
CIRCLE
  5
7D
  8
DEFAULT
 10
25.0
 20
-170.0
 30
-3.0
 40
1.500000000000004
210
0.0
220
0.0
230
-1.0
  0
CIRCLE
  5
7E
  8
DEFAULT
 10
34.99999999999999
 20
-170.0
 30
-3.0
 40
1.499999999999993
210
0.0
220
0.0
230
-1.0
  0
CIRCLE
  5
7F
  8
DEFAULT
 10
44.99999999999999
 20
-170.0
 30
-3.0
 40
1.499999999999986
210
0.0
220
0.0
230
-1.0
  0
CIRCLE
  5
80
  8
DEFAULT
 10
55.0
 20
-170.0
 30
-3.0
 40
1.5
210
0.0
220
0.0
230
-1.0
  0
CIRCLE
  5
81
  8
DEFAULT
 10
64.99999999999999
 20
-170.0
 30
-3.0
 40
1.499999999999986
210
0.0
220
0.0
230
-1.0
  0
CIRCLE
  5
82
  8
DEFAULT
 10
-25.0
 20
-210.0000000000001
 30
-3.0
 40
1.500000000000043
210
0.0
220
0.0
230
-1.0
  0
CIRCLE
  5
83
  8
DEFAULT
 10
-14.99999999999996
 20
-210.0
 30
-3.0
 40
1.500000000000004
210
0.0
220
0.0
230
-1.0
  0
CIRCLE
  5
84
  8
DEFAULT
 10
-4.999999999999943
 20
-210.0000000000001
 30
-3.0
 40
1.499999999999986
210
0.0
220
0.0
230
-1.0
  0
CIRCLE
  5
85
  8
DEFAULT
 10
5.000000000000041
 20
-210.0
 30
-3.0
 40
1.500000000000002
210
0.0
220
0.0
230
-1.0
  0
CIRCLE
  5
86
  8
DEFAULT
 10
14.99999999999997
 20
-210.0
 30
-3.0
 40
1.500000000000071
210
0.0
220
0.0
230
-1.0
  0
CIRCLE
  5
87
  8
DEFAULT
 10
-24.99999999999996
 20
-200.0
 30
-3.0
 40
1.500000000000007
210
0.0
220
0.0
230
-1.0
  0
CIRCLE
  5
88
  8
DEFAULT
 10
-4.999999999999933
 20
-200.0
 30
-3.0
 40
1.499999999999976
210
0.0
220
0.0
230
-1.0
  0
CIRCLE
  5
89
  8
DEFAULT
 10
-24.99999999999998
 20
-190.0
 30
-3.0
 40
1.500000000000011
210
0.0
220
0.0
230
-1.0
  0
CIRCLE
  5
8A
  8
DEFAULT
 10
-4.99999999999996
 20
-190.0
 30
-3.0
 40
1.499999999999988
210
0.0
220
0.0
230
-1.0
  0
CIRCLE
  5
8B
  8
DEFAULT
 10
5.000000000000041
 20
-190.0
 30
-3.0
 40
1.499999999999988
210
0.0
220
0.0
230
-1.0
  0
CIRCLE
  5
8C
  8
DEFAULT
 10
15.00000000000004
 20
-190.0
 30
-3.0
 40
1.499999999999986
210
0.0
220
0.0
230
-1.0
  0
CIRCLE
  5
8D
  8
DEFAULT
 10
-24.99999999999998
 20
-180.0
 30
-3.0
 40
1.499999999999996
210
0.0
220
0.0
230
-1.0
  0
CIRCLE
  5
8E
  8
DEFAULT
 10
-14.99999999999997
 20
-180.0
 30
-3.0
 40
1.5
210
0.0
220
0.0
230
-1.0
  0
CIRCLE
  5
8F
  8
DEFAULT
 10
-4.99999999999998
 20
-180.0
 30
-3.0
 40
1.500000000000009
210
0.0
220
0.0
230
-1.0
  0
CIRCLE
  5
90
  8
DEFAULT
 10
15.00000000000002
 20
-180.0
 30
-3.0
 40
1.5
210
0.0
220
0.0
230
-1.0
  0
CIRCLE
  5
91
  8
DEFAULT
 10
-5.000000000000001
 20
-170.0
 30
-3.0
 40
1.500000000000015
210
0.0
220
0.0
230
-1.0
  0
CIRCLE
  5
92
  8
DEFAULT
 10
15.00000000000002
 20
-170.0
 30
-3.0
 40
1.499999999999993
210
0.0
220
0.0
230
-1.0
  0
CIRCLE
  5
93
  8
DEFAULT
 10
14.99999999999999
 20
-120.0
 30
-3.0
 40
1.499999999999995
210
0.0
220
0.0
230
-1.0
  0
CIRCLE
  5
94
  8
DEFAULT
 10
-5.000000000000011
 20
-120.0
 30
-3.0
 40
1.499999999999996
210
0.0
220
0.0
230
-1.0
  0
CIRCLE
  5
95
  8
DEFAULT
 10
15.0
 20
-130.0
 30
-3.0
 40
1.499999999999993
210
0.0
220
0.0
230
-1.0
  0
CIRCLE
  5
96
  8
DEFAULT
 10
-5.000000000000011
 20
-130.0
 30
-3.0
 40
1.499999999999996
210
0.0
220
0.0
230
-1.0
  0
CIRCLE
  5
97
  8
DEFAULT
 10
-15.00000000000001
 20
-130.0
 30
-3.0
 40
1.499999999999998
210
0.0
220
0.0
230
-1.0
  0
CIRCLE
  5
98
  8
DEFAULT
 10
-25.00000000000001
 20
-130.0
 30
-3.0
 40
1.5
210
0.0
220
0.0
230
-1.0
  0
CIRCLE
  5
99
  8
DEFAULT
 10
15.0
 20
-140.0
 30
-3.0
 40
1.499999999999998
210
0.0
220
0.0
230
-1.0
  0
CIRCLE
  5
9A
  8
DEFAULT
 10
5.000000000000001
 20
-140.0
 30
-3.0
 40
1.499999999999999
210
0.0
220
0.0
230
-1.0
  0
CIRCLE
  5
9B
  8
DEFAULT
 10
-5.000000000000001
 20
-140.0
 30
-3.0
 40
1.500000000000001
210
0.0
220
0.0
230
-1.0
  0
CIRCLE
  5
9C
  8
DEFAULT
 10
-24.99999999999999
 20
-140.0
 30
-3.0
 40
1.499999999999993
210
0.0
220
0.0
230
-1.0
  0
CIRCLE
  5
9D
  8
DEFAULT
 10
-5.000000000000001
 20
-150.0
 30
-3.0
 40
1.500000000000001
210
0.0
220
0.0
230
-1.0
  0
CIRCLE
  5
9E
  8
DEFAULT
 10
-24.99999999999998
 20
-150.0
 30
-3.0
 40
1.499999999999996
210
0.0
220
0.0
230
-1.0
  0
CIRCLE
  5
9F
  8
DEFAULT
 10
15.00000000000001
 20
-160.0
 30
-3.0
 40
1.500000000000002
210
0.0
220
0.0
230
-1.0
  0
CIRCLE
  5
A0
  8
DEFAULT
 10
5.000000000000057
 20
-160.0
 30
-3.0
 40
1.499999999999957
210
0.0
220
0.0
230
-1.0
  0
CIRCLE
  5
A1
  8
DEFAULT
 10
-5.000000000000001
 20
-160.0
 30
-3.0
 40
1.500000000000015
210
0.0
220
0.0
230
-1.0
  0
CIRCLE
  5
A2
  8
DEFAULT
 10
-14.99999999999998
 20
-160.0
 30
-3.0
 40
1.499999999999996
210
0.0
220
0.0
230
-1.0
  0
CIRCLE
  5
A3
  8
DEFAULT
 10
-24.99999999999998
 20
-160.0
 30
-3.0
 40
1.499999999999996
210
0.0
220
0.0
230
-1.0
  0
POLYLINE
  5
A4
  8
DEFAULT
 66
     1
 10
0.0
 20
0.0
 30
3.0
 70
     1
  0
VERTEX
  5
A5
  8
DEFAULT
 10
-66.58578643762691
 20
-215.0
 30
3.0
  0
VERTEX
  5
A6
  8
DEFAULT
 10
26.58578643762691
 20
-215.0
 30
3.0
 42
0.4142135623730975
  0
VERTEX
  5
A7
  8
DEFAULT
 10
29.99999999999999
 20
-211.5857864376269
 30
3.0
  0
VERTEX
  5
A8
  8
DEFAULT
 10
30.0
 20
-118.4142135623731
 30
3.0
 42
0.4142135623730993
  0
VERTEX
  5
A9
  8
DEFAULT
 10
26.58578643762691
 20
-115.0
 30
3.0
  0
VERTEX
  5
AA
  8
DEFAULT
 10
-66.58578643762691
 20
-115.0
 30
3.0
 42
0.4142135623730883
  0
VERTEX
  5
AB
  8
DEFAULT
 10
-69.99999999999997
 20
-118.4142135623731
 30
3.0
  0
VERTEX
  5
AC
  8
DEFAULT
 10
-70.0
 20
-211.5857864376269
 30
3.0
 42
0.4142135623731025
  0
SEQEND
  5
AD
  8
DEFAULT
  0
POLYLINE
  5
AE
  8
DEFAULT
 66
     1
 10
0.0
 20
0.0
 30
3.0
 70
     1
  0
VERTEX
  5
AF
  8
DEFAULT
 10
-55.0
 20
-141.5
 30
3.0
 42
-0.4142135623731061
  0
VERTEX
  5
B0
  8
DEFAULT
 10
-56.5
 20
-140.0
 30
3.0
  0
VERTEX
  5
B1
  8
DEFAULT
 10
-56.5
 20
-130.0
 30
3.0
 42
-1.000000000000028
  0
VERTEX
  5
B2
  8
DEFAULT
 10
-53.5
 20
-130.0
 30
3.0
  0
VERTEX
  5
B3
  8
DEFAULT
 10
-53.5
 20
-140.0
 30
3.0
 42
-0.41421356237311
  0
SEQEND
  5
B4
  8
DEFAULT
  0
POLYLINE
  5
B5
  8
DEFAULT
 66
     1
 10
0.0
 20
0.0
 30
3.0
 70
     1
  0
VERTEX
  5
B6
  8
DEFAULT
 10
-35.0
 20
-161.5
 30
3.0
 42
-0.4142135623730896
  0
VERTEX
  5
B7
  8
DEFAULT
 10
-36.49999999999999
 20
-160.0
 30
3.0
  0
VERTEX
  5
B8
  8
DEFAULT
 10
-36.5
 20
-150.0
 30
3.0
 42
-1.000000000000026
  0
VERTEX
  5
B9
  8
DEFAULT
 10
-33.49999999999999
 20
-150.0
 30
3.0
  0
VERTEX
  5
BA
  8
DEFAULT
 10
-33.5
 20
-160.0
 30
3.0
 42
-0.4142135623731198
  0
SEQEND
  5
BB
  8
DEFAULT
  0
POLYLINE
  5
BC
  8
DEFAULT
 66
     1
 10
0.0
 20
0.0
 30
3.0
 70
     1
  0
VERTEX
  5
BD
  8
DEFAULT
 10
-23.50000000000001
 20
-130.0
 30
3.0
 42
-0.4142135623731004
  0
VERTEX
  5
BE
  8
DEFAULT
 10
-25.00000000000001
 20
-131.5
 30
3.0
  0
VERTEX
  5
BF
  8
DEFAULT
 10
-35.00000000000001
 20
-131.5
 30
3.0
 42
-0.9999999999999715
  0
VERTEX
  5
C0
  8
DEFAULT
 10
-35.00000000000001
 20
-128.4999999999999
 30
3.0
  0
VERTEX
  5
C1
  8
DEFAULT
 10
-25.00000000000001
 20
-128.5
 30
3.0
 42
-0.4142135623731013
  0
SEQEND
  5
C2
  8
DEFAULT
  0
POLYLINE
  5
C3
  8
DEFAULT
 66
     1
 10
0.0
 20
0.0
 30
3.0
 70
     1
  0
VERTEX
  5
C4
  8
DEFAULT
 10
-53.50000000000001
 20
-160.0
 30
3.0
 42
-0.4142135623730944
  0
VERTEX
  5
C5
  8
DEFAULT
 10
-55.00000000000001
 20
-161.5
 30
3.0
  0
VERTEX
  5
C6
  8
DEFAULT
 10
-65.00000000000001
 20
-161.5
 30
3.0
 42
-0.9999999999999764
  0
VERTEX
  5
C7
  8
DEFAULT
 10
-65.0
 20
-158.4999999999999
 30
3.0
  0
VERTEX
  5
C8
  8
DEFAULT
 10
-55.00000000000001
 20
-158.5
 30
3.0
 42
-0.4142135623730776
  0
SEQEND
  5
C9
  8
DEFAULT
  0
POLYLINE
  5
CA
  8
DEFAULT
 66
     1
 10
0.0
 20
0.0
 30
3.0
 70
     1
  0
VERTEX
  5
CB
  8
DEFAULT
 10
-53.50000000000001
 20
-210.0
 30
3.0
 42
-0.41421356237313
  0
VERTEX
  5
CC
  8
DEFAULT
 10
-55.00000000000001
 20
-211.5000000000001
 30
3.0
  0
VERTEX
  5
CD
  8
DEFAULT
 10
-65.00000000000001
 20
-211.5
 30
3.0
 42
-0.9999999999999764
  0
VERTEX
  5
CE
  8
DEFAULT
 10
-65.0
 20
-208.4999999999999
 30
3.0
  0
VERTEX
  5
CF
  8
DEFAULT
 10
-55.00000000000001
 20
-208.5
 30
3.0
 42
-0.4142135623730807
  0
SEQEND
  5
D0
  8
DEFAULT
  0
POLYLINE
  5
D1
  8
DEFAULT
 66
     1
 10
0.0
 20
0.0
 30
3.0
 70
     1
  0
VERTEX
  5
D2
  8
DEFAULT
 10
-23.50000000000001
 20
-180.0
 30
3.0
 42
-0.4142135623731022
  0
VERTEX
  5
D3
  8
DEFAULT
 10
-25.00000000000001
 20
-181.5000000000001
 30
3.0
  0
VERTEX
  5
D4
  8
DEFAULT
 10
-35.00000000000001
 20
-181.5
 30
3.0
 42
-1.000000000000019
  0
VERTEX
  5
D5
  8
DEFAULT
 10
-35.00000000000001
 20
-178.5000000000001
 30
3.0
  0
VERTEX
  5
D6
  8
DEFAULT
 10
-25.00000000000001
 20
-178.5
 30
3.0
 42
-0.4142135623730875
  0
SEQEND
  5
D7
  8
DEFAULT
  0
POLYLINE
  5
D8
  8
DEFAULT
 66
     1
 10
0.0
 20
0.0
 30
3.0
 70
     1
  0
VERTEX
  5
D9
  8
DEFAULT
 10
-35.0
 20
-211.5
 30
3.0
 42
-0.414213562373129
  0
VERTEX
  5
DA
  8
DEFAULT
 10
-36.49999999999999
 20
-210.0
 30
3.0
  0
VERTEX
  5
DB
  8
DEFAULT
 10
-36.5
 20
-200.0
 30
3.0
 42
-0.9999999999999737
  0
VERTEX
  5
DC
  8
DEFAULT
 10
-33.50000000000001
 20
-200.0
 30
3.0
  0
VERTEX
  5
DD
  8
DEFAULT
 10
-33.5
 20
-210.0
 30
3.0
 42
-0.41421356237308
  0
SEQEND
  5
DE
  8
DEFAULT
  0
POLYLINE
  5
DF
  8
DEFAULT
 66
     1
 10
0.0
 20
0.0
 30
3.0
 70
     1
  0
VERTEX
  5
E0
  8
DEFAULT
 10
-55.0
 20
-191.5
 30
3.0
 42
-0.4142135623730967
  0
VERTEX
  5
E1
  8
DEFAULT
 10
-56.50000000000001
 20
-190.0
 30
3.0
  0
VERTEX
  5
E2
  8
DEFAULT
 10
-56.5
 20
-180.0
 30
3.0
 42
-0.9999999999999999
  0
VERTEX
  5
E3
  8
DEFAULT
 10
-53.49999999999997
 20
-180.0
 30
3.0
  0
VERTEX
  5
E4
  8
DEFAULT
 10
-53.5
 20
-190.0
 30
3.0
 42
-0.4142135623730999
  0
SEQEND
  5
E5
  8
DEFAULT
  0
POLYLINE
  5
E6
  8
DEFAULT
 66
     1
 10
0.0
 20
0.0
 30
3.0
 70
     1
  0
VERTEX
  5
E7
  8
DEFAULT
 10
14.99999999999997
 20
-188.5
 30
3.0
 42
-0.4142135623731061
  0
VERTEX
  5
E8
  8
DEFAULT
 10
16.49999999999997
 20
-190.0
 30
3.0
  0
VERTEX
  5
E9
  8
DEFAULT
 10
16.49999999999996
 20
-200.0
 30
3.0
 42
-0.9999999999999999
  0
VERTEX
  5
EA
  8
DEFAULT
 10
13.49999999999996
 20
-200.0
 30
3.0
  0
VERTEX
  5
EB
  8
DEFAULT
 10
13.49999999999997
 20
-190.0
 30
3.0
 42
-0.4142135623730959
  0
SEQEND
  5
EC
  8
DEFAULT
  0
POLYLINE
  5
ED
  8
DEFAULT
 66
     1
 10
0.0
 20
0.0
 30
3.0
 70
     1
  0
VERTEX
  5
EE
  8
DEFAULT
 10
-5.000000000000014
 20
-168.5
 30
3.0
 42
-0.4142135623730825
  0
VERTEX
  5
EF
  8
DEFAULT
 10
-3.500000000000007
 20
-170.0
 30
3.0
  0
VERTEX
  5
F0
  8
DEFAULT
 10
-3.500000000000021
 20
-180.0
 30
3.0
 42
-1.0
  0
VERTEX
  5
F1
  8
DEFAULT
 10
-6.500000000000041
 20
-180.0
 30
3.0
  0
VERTEX
  5
F2
  8
DEFAULT
 10
-6.500000000000014
 20
-170.0
 30
3.0
 42
-0.4142135623730844
  0
SEQEND
  5
F3
  8
DEFAULT
  0
POLYLINE
  5
F4
  8
DEFAULT
 66
     1
 10
0.0
 20
0.0
 30
3.0
 70
     1
  0
VERTEX
  5
F5
  8
DEFAULT
 10
-16.50000000000002
 20
-200.0
 30
3.0
 42
-0.4142135623730896
  0
VERTEX
  5
F6
  8
DEFAULT
 10
-15.00000000000001
 20
-198.5
 30
3.0
  0
VERTEX
  5
F7
  8
DEFAULT
 10
-5.000000000000014
 20
-198.5
 30
3.0
 42
-1.00000000000001
  0
VERTEX
  5
F8
  8
DEFAULT
 10
-5.000000000000028
 20
-201.5
 30
3.0
  0
VERTEX
  5
F9
  8
DEFAULT
 10
-15.00000000000003
 20
-201.5
 30
3.0
 42
-0.4142135623731242
  0
SEQEND
  5
FA
  8
DEFAULT
  0
POLYLINE
  5
FB
  8
DEFAULT
 66
     1
 10
0.0
 20
0.0
 30
3.0
 70
     1
  0
VERTEX
  5
FC
  8
DEFAULT
 10
13.5
 20
-170.0
 30
3.0
 42
-0.4142135623730885
  0
VERTEX
  5
FD
  8
DEFAULT
 10
15.0
 20
-168.5
 30
3.0
  0
VERTEX
  5
FE
  8
DEFAULT
 10
25.0
 20
-168.5000000000001
 30
3.0
 42
-1.000000000000019
  0
VERTEX
  5
FF
  8
DEFAULT
 10
24.99999999999999
 20
-171.5000000000001
 30
3.0
  0
VERTEX
  5
100
  8
DEFAULT
 10
14.99999999999999
 20
-171.5
 30
3.0
 42
-0.4142135623731244
  0
SEQEND
  5
101
  8
DEFAULT
  0
POLYLINE
  5
102
  8
DEFAULT
 66
     1
 10
0.0
 20
0.0
 30
3.0
 70
     1
  0
VERTEX
  5
103
  8
DEFAULT
 10
13.50000000000003
 20
-120.0
 30
3.0
 42
-0.4142135623730784
  0
VERTEX
  5
104
  8
DEFAULT
 10
15.00000000000003
 20
-118.5
 30
3.0
  0
VERTEX
  5
105
  8
DEFAULT
 10
25.00000000000003
 20
-118.5
 30
3.0
 42
-1.00000000000001
  0
VERTEX
  5
106
  8
DEFAULT
 10
25.00000000000003
 20
-121.5
 30
3.0
  0
VERTEX
  5
107
  8
DEFAULT
 10
15.00000000000001
 20
-121.5
 30
3.0
 42
-0.4142135623731069
  0
SEQEND
  5
108
  8
DEFAULT
  0
POLYLINE
  5
109
  8
DEFAULT
 66
     1
 10
0.0
 20
0.0
 30
3.0
 70
     1
  0
VERTEX
  5
10A
  8
DEFAULT
 10
-16.49999999999999
 20
-150.0
 30
3.0
 42
-0.4142135623731024
  0
VERTEX
  5
10B
  8
DEFAULT
 10
-14.99999999999999
 20
-148.5
 30
3.0
  0
VERTEX
  5
10C
  8
DEFAULT
 10
-4.999999999999986
 20
-148.5
 30
3.0
 42
-0.9999999999999903
  0
VERTEX
  5
10D
  8
DEFAULT
 10
-5.0
 20
-151.5
 30
3.0
  0
VERTEX
  5
10E
  8
DEFAULT
 10
-15.0
 20
-151.5
 30
3.0
 42
-0.4142135623731192
  0
SEQEND
  5
10F
  8
DEFAULT
  0
POLYLINE
  5
110
  8
DEFAULT
 66
     1
 10
0.0
 20
0.0
 30
3.0
 70
     1
  0
VERTEX
  5
111
  8
DEFAULT
 10
-4.999999999999986
 20
-118.5
 30
3.0
 42
-0.4142135623730924
  0
VERTEX
  5
112
  8
DEFAULT
 10
-3.499999999999989
 20
-120.0
 30
3.0
  0
VERTEX
  5
113
  8
DEFAULT
 10
-3.499999999999993
 20
-130.0
 30
3.0
 42
-0.9999999999999999
  0
VERTEX
  5
114
  8
DEFAULT
 10
-6.500000000000021
 20
-130.0
 30
3.0
  0
VERTEX
  5
115
  8
DEFAULT
 10
-6.499999999999986
 20
-120.0
 30
3.0
 42
-0.4142135623730933
  0
SEQEND
  5
116
  8
DEFAULT
  0
POLYLINE
  5
117
  8
DEFAULT
 66
     1
 10
0.0
 20
0.0
 30
3.0
 70
     1
  0
VERTEX
  5
118
  8
DEFAULT
 10
15.0
 20
-138.5
 30
3.0
 42
-0.4142135623730809
  0
VERTEX
  5
119
  8
DEFAULT
 10
16.49999999999999
 20
-140.0
 30
3.0
  0
VERTEX
  5
11A
  8
DEFAULT
 10
16.5
 20
-150.0
 30
3.0
 42
-0.9999999999999994
  0
VERTEX
  5
11B
  8
DEFAULT
 10
13.49999999999998
 20
-150.0
 30
3.0
  0
VERTEX
  5
11C
  8
DEFAULT
 10
13.5
 20
-140.0
 30
3.0
 42
-0.4142135623730793
  0
SEQEND
  5
11D
  8
DEFAULT
  0
ENDSEC
  0
EOF
