ISO-10303-21;
HEADER;
/* Generated by software containing ST-Developer
 * from STEP Tools, Inc. (www.steptools.com) 
 */
/* OPTION: using custom schema-name function */

FILE_DESCRIPTION(
/* description */ (''),
/* implementation_level */ '2;1');

FILE_NAME(
/* name */ 'GuitarBody',
/* time_stamp */ '2025-07-10T12:29:41+03:00',
/* author */ (''),
/* organization */ (''),
/* preprocessor_version */ 'ST-DEVELOPER v16.5',
/* originating_system */ 'Rhino 7.23',
/* authorisation */ '');

FILE_SCHEMA (('CONFIG_CONTROL_DESIGN'));
ENDSEC;

DATA;
#10=SHAPE_REPRESENTATION_RELATIONSHIP('','',#370,#12);
#11=MANIFOLD_SOLID_BREP('brep_1',#13);
#12=ADVANCED_BREP_SHAPE_REPRESENTATION('brep_rep_0',(#11,#388),#369);
#13=CLOSED_SHELL('',(#20,#21,#22,#23,#24,#25,#26,#27,#28,#29,#30,#31,#32,
#33,#34,#35,#36,#37));
#14=FACE_BOUND('',#67,.T.);
#15=FACE_BOUND('',#68,.T.);
#16=FACE_BOUND('',#69,.T.);
#17=FACE_BOUND('',#71,.T.);
#18=FACE_BOUND('',#72,.T.);
#19=FACE_BOUND('',#73,.T.);
#20=ADVANCED_FACE('',(#38),#272,.F.);
#21=ADVANCED_FACE('',(#39),#273,.T.);
#22=ADVANCED_FACE('',(#40),#274,.F.);
#23=ADVANCED_FACE('',(#41),#275,.T.);
#24=ADVANCED_FACE('',(#42),#276,.F.);
#25=ADVANCED_FACE('',(#43),#277,.T.);
#26=ADVANCED_FACE('',(#44),#278,.F.);
#27=ADVANCED_FACE('',(#45),#279,.T.);
#28=ADVANCED_FACE('',(#46),#280,.F.);
#29=ADVANCED_FACE('',(#47),#281,.F.);
#30=ADVANCED_FACE('',(#48,#14,#15,#16),#268,.T.);
#31=ADVANCED_FACE('',(#49,#17,#18,#19),#269,.T.);
#32=ADVANCED_FACE('',(#50),#282,.F.);
#33=ADVANCED_FACE('',(#51),#270,.T.);
#34=ADVANCED_FACE('',(#52),#266,.T.);
#35=ADVANCED_FACE('',(#53),#283,.T.);
#36=ADVANCED_FACE('',(#54),#271,.T.);
#37=ADVANCED_FACE('',(#55),#267,.T.);
#38=FACE_OUTER_BOUND('',#56,.T.);
#39=FACE_OUTER_BOUND('',#57,.T.);
#40=FACE_OUTER_BOUND('',#58,.T.);
#41=FACE_OUTER_BOUND('',#59,.T.);
#42=FACE_OUTER_BOUND('',#60,.T.);
#43=FACE_OUTER_BOUND('',#61,.T.);
#44=FACE_OUTER_BOUND('',#62,.T.);
#45=FACE_OUTER_BOUND('',#63,.T.);
#46=FACE_OUTER_BOUND('',#64,.T.);
#47=FACE_OUTER_BOUND('',#65,.T.);
#48=FACE_OUTER_BOUND('',#66,.T.);
#49=FACE_OUTER_BOUND('',#70,.T.);
#50=FACE_OUTER_BOUND('',#74,.T.);
#51=FACE_OUTER_BOUND('',#75,.T.);
#52=FACE_OUTER_BOUND('',#76,.T.);
#53=FACE_OUTER_BOUND('',#77,.T.);
#54=FACE_OUTER_BOUND('',#78,.T.);
#55=FACE_OUTER_BOUND('',#79,.T.);
#56=EDGE_LOOP('',(#80,#81,#82,#83));
#57=EDGE_LOOP('',(#84,#85,#86,#87));
#58=EDGE_LOOP('',(#88,#89,#90,#91));
#59=EDGE_LOOP('',(#92,#93,#94,#95));
#60=EDGE_LOOP('',(#96,#97,#98,#99));
#61=EDGE_LOOP('',(#100,#101,#102,#103));
#62=EDGE_LOOP('',(#104,#105,#106,#107));
#63=EDGE_LOOP('',(#108,#109,#110,#111));
#64=EDGE_LOOP('',(#112,#113,#114,#115));
#65=EDGE_LOOP('',(#116,#117,#118,#119));
#66=EDGE_LOOP('',(#120,#121,#122,#123,#124,#125,#126,#127));
#67=EDGE_LOOP('',(#128));
#68=EDGE_LOOP('',(#129));
#69=EDGE_LOOP('',(#130));
#70=EDGE_LOOP('',(#131,#132,#133,#134,#135,#136,#137,#138));
#71=EDGE_LOOP('',(#139));
#72=EDGE_LOOP('',(#140));
#73=EDGE_LOOP('',(#141));
#74=EDGE_LOOP('',(#142,#143,#144,#145));
#75=EDGE_LOOP('',(#146));
#76=EDGE_LOOP('',(#147,#148,#149,#150));
#77=EDGE_LOOP('',(#151,#152,#153,#154));
#78=EDGE_LOOP('',(#155));
#79=EDGE_LOOP('',(#156,#157,#158,#159));
#80=ORIENTED_EDGE('',*,*,#162,.T.);
#81=ORIENTED_EDGE('',*,*,#163,.T.);
#82=ORIENTED_EDGE('',*,*,#164,.F.);
#83=ORIENTED_EDGE('',*,*,#165,.F.);
#84=ORIENTED_EDGE('',*,*,#166,.T.);
#85=ORIENTED_EDGE('',*,*,#167,.T.);
#86=ORIENTED_EDGE('',*,*,#168,.F.);
#87=ORIENTED_EDGE('',*,*,#163,.F.);
#88=ORIENTED_EDGE('',*,*,#169,.T.);
#89=ORIENTED_EDGE('',*,*,#170,.T.);
#90=ORIENTED_EDGE('',*,*,#171,.F.);
#91=ORIENTED_EDGE('',*,*,#167,.F.);
#92=ORIENTED_EDGE('',*,*,#172,.T.);
#93=ORIENTED_EDGE('',*,*,#173,.T.);
#94=ORIENTED_EDGE('',*,*,#174,.F.);
#95=ORIENTED_EDGE('',*,*,#170,.F.);
#96=ORIENTED_EDGE('',*,*,#175,.T.);
#97=ORIENTED_EDGE('',*,*,#176,.T.);
#98=ORIENTED_EDGE('',*,*,#177,.F.);
#99=ORIENTED_EDGE('',*,*,#173,.F.);
#100=ORIENTED_EDGE('',*,*,#178,.T.);
#101=ORIENTED_EDGE('',*,*,#179,.T.);
#102=ORIENTED_EDGE('',*,*,#180,.F.);
#103=ORIENTED_EDGE('',*,*,#176,.F.);
#104=ORIENTED_EDGE('',*,*,#181,.T.);
#105=ORIENTED_EDGE('',*,*,#182,.T.);
#106=ORIENTED_EDGE('',*,*,#183,.F.);
#107=ORIENTED_EDGE('',*,*,#179,.F.);
#108=ORIENTED_EDGE('',*,*,#184,.T.);
#109=ORIENTED_EDGE('',*,*,#165,.T.);
#110=ORIENTED_EDGE('',*,*,#185,.F.);
#111=ORIENTED_EDGE('',*,*,#182,.F.);
#112=ORIENTED_EDGE('',*,*,#186,.T.);
#113=ORIENTED_EDGE('',*,*,#187,.T.);
#114=ORIENTED_EDGE('',*,*,#188,.F.);
#115=ORIENTED_EDGE('',*,*,#187,.F.);
#116=ORIENTED_EDGE('',*,*,#189,.T.);
#117=ORIENTED_EDGE('',*,*,#190,.T.);
#118=ORIENTED_EDGE('',*,*,#191,.F.);
#119=ORIENTED_EDGE('',*,*,#190,.F.);
#120=ORIENTED_EDGE('',*,*,#184,.F.);
#121=ORIENTED_EDGE('',*,*,#181,.F.);
#122=ORIENTED_EDGE('',*,*,#178,.F.);
#123=ORIENTED_EDGE('',*,*,#175,.F.);
#124=ORIENTED_EDGE('',*,*,#172,.F.);
#125=ORIENTED_EDGE('',*,*,#169,.F.);
#126=ORIENTED_EDGE('',*,*,#166,.F.);
#127=ORIENTED_EDGE('',*,*,#162,.F.);
#128=ORIENTED_EDGE('',*,*,#186,.F.);
#129=ORIENTED_EDGE('',*,*,#189,.F.);
#130=ORIENTED_EDGE('',*,*,#160,.F.);
#131=ORIENTED_EDGE('',*,*,#164,.T.);
#132=ORIENTED_EDGE('',*,*,#168,.T.);
#133=ORIENTED_EDGE('',*,*,#171,.T.);
#134=ORIENTED_EDGE('',*,*,#174,.T.);
#135=ORIENTED_EDGE('',*,*,#177,.T.);
#136=ORIENTED_EDGE('',*,*,#180,.T.);
#137=ORIENTED_EDGE('',*,*,#183,.T.);
#138=ORIENTED_EDGE('',*,*,#185,.T.);
#139=ORIENTED_EDGE('',*,*,#188,.T.);
#140=ORIENTED_EDGE('',*,*,#191,.T.);
#141=ORIENTED_EDGE('',*,*,#195,.T.);
#142=ORIENTED_EDGE('',*,*,#196,.T.);
#143=ORIENTED_EDGE('',*,*,#192,.T.);
#144=ORIENTED_EDGE('',*,*,#196,.F.);
#145=ORIENTED_EDGE('',*,*,#195,.F.);
#146=ORIENTED_EDGE('',*,*,#194,.F.);
#147=ORIENTED_EDGE('',*,*,#193,.T.);
#148=ORIENTED_EDGE('',*,*,#194,.T.);
#149=ORIENTED_EDGE('',*,*,#193,.F.);
#150=ORIENTED_EDGE('',*,*,#192,.F.);
#151=ORIENTED_EDGE('',*,*,#161,.F.);
#152=ORIENTED_EDGE('',*,*,#160,.T.);
#153=ORIENTED_EDGE('',*,*,#161,.T.);
#154=ORIENTED_EDGE('',*,*,#197,.F.);
#155=ORIENTED_EDGE('',*,*,#199,.T.);
#156=ORIENTED_EDGE('',*,*,#197,.T.);
#157=ORIENTED_EDGE('',*,*,#198,.T.);
#158=ORIENTED_EDGE('',*,*,#199,.F.);
#159=ORIENTED_EDGE('',*,*,#198,.F.);
#160=EDGE_CURVE('',#240,#240,#201,.T.);
#161=EDGE_CURVE('',#240,#264,#202,.T.);
#162=EDGE_CURVE('',#241,#242,#203,.T.);
#163=EDGE_CURVE('',#242,#243,#204,.T.);
#164=EDGE_CURVE('',#244,#243,#205,.T.);
#165=EDGE_CURVE('',#241,#244,#206,.T.);
#166=EDGE_CURVE('',#242,#245,#207,.T.);
#167=EDGE_CURVE('',#245,#246,#208,.T.);
#168=EDGE_CURVE('',#243,#246,#209,.T.);
#169=EDGE_CURVE('',#245,#247,#210,.T.);
#170=EDGE_CURVE('',#247,#248,#211,.T.);
#171=EDGE_CURVE('',#246,#248,#212,.T.);
#172=EDGE_CURVE('',#247,#249,#213,.T.);
#173=EDGE_CURVE('',#249,#250,#214,.T.);
#174=EDGE_CURVE('',#248,#250,#215,.T.);
#175=EDGE_CURVE('',#249,#251,#216,.T.);
#176=EDGE_CURVE('',#251,#252,#217,.T.);
#177=EDGE_CURVE('',#250,#252,#218,.T.);
#178=EDGE_CURVE('',#251,#253,#219,.T.);
#179=EDGE_CURVE('',#253,#254,#220,.T.);
#180=EDGE_CURVE('',#252,#254,#221,.T.);
#181=EDGE_CURVE('',#253,#255,#222,.T.);
#182=EDGE_CURVE('',#255,#256,#223,.T.);
#183=EDGE_CURVE('',#254,#256,#224,.T.);
#184=EDGE_CURVE('',#255,#241,#225,.T.);
#185=EDGE_CURVE('',#256,#244,#226,.T.);
#186=EDGE_CURVE('',#257,#257,#227,.T.);
#187=EDGE_CURVE('',#257,#258,#228,.T.);
#188=EDGE_CURVE('',#258,#258,#229,.T.);
#189=EDGE_CURVE('',#259,#259,#230,.T.);
#190=EDGE_CURVE('',#259,#260,#231,.T.);
#191=EDGE_CURVE('',#260,#260,#232,.T.);
#192=EDGE_CURVE('',#261,#261,#233,.T.);
#193=EDGE_CURVE('',#261,#262,#234,.T.);
#194=EDGE_CURVE('',#262,#262,#235,.T.);
#195=EDGE_CURVE('',#263,#263,#236,.T.);
#196=EDGE_CURVE('',#263,#261,#237,.T.);
#197=EDGE_CURVE('',#264,#264,#238,.T.);
#198=EDGE_CURVE('',#264,#265,#200,.T.);
#199=EDGE_CURVE('',#265,#265,#239,.T.);
#200=B_SPLINE_CURVE_WITH_KNOTS('',5,(#705,#706,#707,#708,#709,#710),
 .UNSPECIFIED.,.F.,.F.,(6,6),(0.,9.48663751534738),.UNSPECIFIED.);
#201=(
BOUNDED_CURVE()
B_SPLINE_CURVE(2,(#533,#534,#535,#536,#537,#538,#539,#540,#541),
 .UNSPECIFIED.,.T.,.F.)
B_SPLINE_CURVE_WITH_KNOTS((3,2,2,2,3),(-96.7610537305656,-72.5707902979242,
-48.3805268652828,-24.1902634326414,0.),.UNSPECIFIED.)
CURVE()
GEOMETRIC_REPRESENTATION_ITEM()
RATIONAL_B_SPLINE_CURVE((1.,0.707106781186548,1.,0.707106781186548,1.,0.707106781186548,
1.,0.707106781186548,1.))
REPRESENTATION_ITEM('')
);
#202=(
BOUNDED_CURVE()
B_SPLINE_CURVE(1,(#542,#543),.UNSPECIFIED.,.F.,.F.)
B_SPLINE_CURVE_WITH_KNOTS((2,2),(0.,36.9999999999983),.UNSPECIFIED.)
CURVE()
GEOMETRIC_REPRESENTATION_ITEM()
RATIONAL_B_SPLINE_CURVE((1.,1.))
REPRESENTATION_ITEM('')
);
#203=(
BOUNDED_CURVE()
B_SPLINE_CURVE(2,(#544,#545,#546),.UNSPECIFIED.,.F.,.F.)
B_SPLINE_CURVE_WITH_KNOTS((3,3),(-140.612025039403,-135.493049182505),
 .UNSPECIFIED.)
CURVE()
GEOMETRIC_REPRESENTATION_ITEM()
RATIONAL_B_SPLINE_CURVE((1.,0.871816578741438,1.))
REPRESENTATION_ITEM('')
);
#204=(
BOUNDED_CURVE()
B_SPLINE_CURVE(1,(#547,#548),.UNSPECIFIED.,.F.,.F.)
B_SPLINE_CURVE_WITH_KNOTS((2,2),(0.,1.),.UNSPECIFIED.)
CURVE()
GEOMETRIC_REPRESENTATION_ITEM()
RATIONAL_B_SPLINE_CURVE((1.,1.))
REPRESENTATION_ITEM('')
);
#205=(
BOUNDED_CURVE()
B_SPLINE_CURVE(2,(#549,#550,#551),.UNSPECIFIED.,.F.,.F.)
B_SPLINE_CURVE_WITH_KNOTS((3,3),(-140.612025039403,-135.493049182505),
 .UNSPECIFIED.)
CURVE()
GEOMETRIC_REPRESENTATION_ITEM()
RATIONAL_B_SPLINE_CURVE((1.,0.871816578741438,1.))
REPRESENTATION_ITEM('')
);
#206=(
BOUNDED_CURVE()
B_SPLINE_CURVE(1,(#552,#553),.UNSPECIFIED.,.F.,.F.)
B_SPLINE_CURVE_WITH_KNOTS((2,2),(0.,1.),.UNSPECIFIED.)
CURVE()
GEOMETRIC_REPRESENTATION_ITEM()
RATIONAL_B_SPLINE_CURVE((1.,1.))
REPRESENTATION_ITEM('')
);
#207=(
BOUNDED_CURVE()
B_SPLINE_CURVE(2,(#554,#555,#556,#557,#558),.UNSPECIFIED.,.F.,.F.)
B_SPLINE_CURVE_WITH_KNOTS((3,2,3),(-135.493049182505,-116.631529189823,
-97.7700091971412),.UNSPECIFIED.)
CURVE()
GEOMETRIC_REPRESENTATION_ITEM()
RATIONAL_B_SPLINE_CURVE((1.,0.818278242106704,1.,0.818278242106704,1.))
REPRESENTATION_ITEM('')
);
#208=(
BOUNDED_CURVE()
B_SPLINE_CURVE(1,(#559,#560),.UNSPECIFIED.,.F.,.F.)
B_SPLINE_CURVE_WITH_KNOTS((2,2),(0.,1.),.UNSPECIFIED.)
CURVE()
GEOMETRIC_REPRESENTATION_ITEM()
RATIONAL_B_SPLINE_CURVE((1.,1.))
REPRESENTATION_ITEM('')
);
#209=(
BOUNDED_CURVE()
B_SPLINE_CURVE(2,(#561,#562,#563,#564,#565),.UNSPECIFIED.,.F.,.F.)
B_SPLINE_CURVE_WITH_KNOTS((3,2,3),(-135.493049182505,-116.631529189823,
-97.7700091971412),.UNSPECIFIED.)
CURVE()
GEOMETRIC_REPRESENTATION_ITEM()
RATIONAL_B_SPLINE_CURVE((1.,0.818278242106704,1.,0.818278242106704,1.))
REPRESENTATION_ITEM('')
);
#210=(
BOUNDED_CURVE()
B_SPLINE_CURVE(2,(#566,#567,#568),.UNSPECIFIED.,.F.,.F.)
B_SPLINE_CURVE_WITH_KNOTS((3,3),(-97.7700091971412,-92.6510333402427),
 .UNSPECIFIED.)
CURVE()
GEOMETRIC_REPRESENTATION_ITEM()
RATIONAL_B_SPLINE_CURVE((1.,0.871816578741436,1.))
REPRESENTATION_ITEM('')
);
#211=(
BOUNDED_CURVE()
B_SPLINE_CURVE(1,(#569,#570),.UNSPECIFIED.,.F.,.F.)
B_SPLINE_CURVE_WITH_KNOTS((2,2),(0.,1.),.UNSPECIFIED.)
CURVE()
GEOMETRIC_REPRESENTATION_ITEM()
RATIONAL_B_SPLINE_CURVE((1.,1.))
REPRESENTATION_ITEM('')
);
#212=(
BOUNDED_CURVE()
B_SPLINE_CURVE(2,(#571,#572,#573),.UNSPECIFIED.,.F.,.F.)
B_SPLINE_CURVE_WITH_KNOTS((3,3),(-97.7700091971412,-92.6510333402427),
 .UNSPECIFIED.)
CURVE()
GEOMETRIC_REPRESENTATION_ITEM()
RATIONAL_B_SPLINE_CURVE((1.,0.871816578741436,1.))
REPRESENTATION_ITEM('')
);
#213=(
BOUNDED_CURVE()
B_SPLINE_CURVE(2,(#574,#575,#576,#577,#578),.UNSPECIFIED.,.F.,.F.)
B_SPLINE_CURVE_WITH_KNOTS((3,2,3),(-92.6510333402427,-88.6210251713097,
-84.5910170023767),.UNSPECIFIED.)
CURVE()
GEOMETRIC_REPRESENTATION_ITEM()
RATIONAL_B_SPLINE_CURVE((1.,0.774476783922707,1.,0.774476783922707,1.))
REPRESENTATION_ITEM('')
);
#214=(
BOUNDED_CURVE()
B_SPLINE_CURVE(1,(#579,#580),.UNSPECIFIED.,.F.,.F.)
B_SPLINE_CURVE_WITH_KNOTS((2,2),(0.,1.),.UNSPECIFIED.)
CURVE()
GEOMETRIC_REPRESENTATION_ITEM()
RATIONAL_B_SPLINE_CURVE((1.,1.))
REPRESENTATION_ITEM('')
);
#215=(
BOUNDED_CURVE()
B_SPLINE_CURVE(2,(#581,#582,#583,#584,#585),.UNSPECIFIED.,.F.,.F.)
B_SPLINE_CURVE_WITH_KNOTS((3,2,3),(-92.6510333402427,-88.6210251713097,
-84.5910170023767),.UNSPECIFIED.)
CURVE()
GEOMETRIC_REPRESENTATION_ITEM()
RATIONAL_B_SPLINE_CURVE((1.,0.774476783922707,1.,0.774476783922707,1.))
REPRESENTATION_ITEM('')
);
#216=(
BOUNDED_CURVE()
B_SPLINE_CURVE(2,(#586,#587,#588),.UNSPECIFIED.,.F.,.F.)
B_SPLINE_CURVE_WITH_KNOTS((3,3),(-84.5910170023767,-79.4720411454781),
 .UNSPECIFIED.)
CURVE()
GEOMETRIC_REPRESENTATION_ITEM()
RATIONAL_B_SPLINE_CURVE((1.,0.871816578741432,1.))
REPRESENTATION_ITEM('')
);
#217=(
BOUNDED_CURVE()
B_SPLINE_CURVE(1,(#589,#590),.UNSPECIFIED.,.F.,.F.)
B_SPLINE_CURVE_WITH_KNOTS((2,2),(0.,1.),.UNSPECIFIED.)
CURVE()
GEOMETRIC_REPRESENTATION_ITEM()
RATIONAL_B_SPLINE_CURVE((1.,1.))
REPRESENTATION_ITEM('')
);
#218=(
BOUNDED_CURVE()
B_SPLINE_CURVE(2,(#591,#592,#593),.UNSPECIFIED.,.F.,.F.)
B_SPLINE_CURVE_WITH_KNOTS((3,3),(-84.5910170023767,-79.4720411454781),
 .UNSPECIFIED.)
CURVE()
GEOMETRIC_REPRESENTATION_ITEM()
RATIONAL_B_SPLINE_CURVE((1.,0.871816578741432,1.))
REPRESENTATION_ITEM('')
);
#219=(
BOUNDED_CURVE()
B_SPLINE_CURVE(2,(#594,#595,#596,#597,#598),.UNSPECIFIED.,.F.,.F.)
B_SPLINE_CURVE_WITH_KNOTS((3,2,3),(-79.4720411454781,-60.6105211527962,
-41.7490011601142),.UNSPECIFIED.)
CURVE()
GEOMETRIC_REPRESENTATION_ITEM()
RATIONAL_B_SPLINE_CURVE((1.,0.818278242106701,1.,0.818278242106701,1.))
REPRESENTATION_ITEM('')
);
#220=(
BOUNDED_CURVE()
B_SPLINE_CURVE(1,(#599,#600),.UNSPECIFIED.,.F.,.F.)
B_SPLINE_CURVE_WITH_KNOTS((2,2),(0.,1.),.UNSPECIFIED.)
CURVE()
GEOMETRIC_REPRESENTATION_ITEM()
RATIONAL_B_SPLINE_CURVE((1.,1.))
REPRESENTATION_ITEM('')
);
#221=(
BOUNDED_CURVE()
B_SPLINE_CURVE(2,(#601,#602,#603,#604,#605),.UNSPECIFIED.,.F.,.F.)
B_SPLINE_CURVE_WITH_KNOTS((3,2,3),(-79.4720411454781,-60.6105211527962,
-41.7490011601142),.UNSPECIFIED.)
CURVE()
GEOMETRIC_REPRESENTATION_ITEM()
RATIONAL_B_SPLINE_CURVE((1.,0.818278242106701,1.,0.818278242106701,1.))
REPRESENTATION_ITEM('')
);
#222=(
BOUNDED_CURVE()
B_SPLINE_CURVE(2,(#606,#607,#608),.UNSPECIFIED.,.F.,.F.)
B_SPLINE_CURVE_WITH_KNOTS((3,3),(-41.7490011601142,-36.6300253032157),
 .UNSPECIFIED.)
CURVE()
GEOMETRIC_REPRESENTATION_ITEM()
RATIONAL_B_SPLINE_CURVE((1.,0.871816578741433,1.))
REPRESENTATION_ITEM('')
);
#223=(
BOUNDED_CURVE()
B_SPLINE_CURVE(1,(#609,#610),.UNSPECIFIED.,.F.,.F.)
B_SPLINE_CURVE_WITH_KNOTS((2,2),(0.,1.),.UNSPECIFIED.)
CURVE()
GEOMETRIC_REPRESENTATION_ITEM()
RATIONAL_B_SPLINE_CURVE((1.,1.))
REPRESENTATION_ITEM('')
);
#224=(
BOUNDED_CURVE()
B_SPLINE_CURVE(2,(#611,#612,#613),.UNSPECIFIED.,.F.,.F.)
B_SPLINE_CURVE_WITH_KNOTS((3,3),(-41.7490011601142,-36.6300253032157),
 .UNSPECIFIED.)
CURVE()
GEOMETRIC_REPRESENTATION_ITEM()
RATIONAL_B_SPLINE_CURVE((1.,0.871816578741433,1.))
REPRESENTATION_ITEM('')
);
#225=(
BOUNDED_CURVE()
B_SPLINE_CURVE(2,(#614,#615,#616,#617,#618),.UNSPECIFIED.,.F.,.F.)
B_SPLINE_CURVE_WITH_KNOTS((3,2,3),(-36.6300253032157,-32.6000171342827,
-28.5700089653497),.UNSPECIFIED.)
CURVE()
GEOMETRIC_REPRESENTATION_ITEM()
RATIONAL_B_SPLINE_CURVE((1.,0.774476783922703,1.,0.774476783922703,1.))
REPRESENTATION_ITEM('')
);
#226=(
BOUNDED_CURVE()
B_SPLINE_CURVE(2,(#619,#620,#621,#622,#623),.UNSPECIFIED.,.F.,.F.)
B_SPLINE_CURVE_WITH_KNOTS((3,2,3),(-36.6300253032157,-32.6000171342827,
-28.5700089653497),.UNSPECIFIED.)
CURVE()
GEOMETRIC_REPRESENTATION_ITEM()
RATIONAL_B_SPLINE_CURVE((1.,0.774476783922703,1.,0.774476783922703,1.))
REPRESENTATION_ITEM('')
);
#227=(
BOUNDED_CURVE()
B_SPLINE_CURVE(2,(#624,#625,#626,#627,#628,#629,#630,#631,#632),
 .UNSPECIFIED.,.T.,.F.)
B_SPLINE_CURVE_WITH_KNOTS((3,2,2,2,3),(-28.5700089653497,-26.2138144751574,
-23.857619984965,-21.5014254947727,-19.1452310045804),.UNSPECIFIED.)
CURVE()
GEOMETRIC_REPRESENTATION_ITEM()
RATIONAL_B_SPLINE_CURVE((1.,0.707106781186548,1.,0.707106781186548,1.,0.707106781186548,
1.,0.707106781186548,1.))
REPRESENTATION_ITEM('')
);
#228=(
BOUNDED_CURVE()
B_SPLINE_CURVE(1,(#633,#634),.UNSPECIFIED.,.F.,.F.)
B_SPLINE_CURVE_WITH_KNOTS((2,2),(0.,1.),.UNSPECIFIED.)
CURVE()
GEOMETRIC_REPRESENTATION_ITEM()
RATIONAL_B_SPLINE_CURVE((1.,1.))
REPRESENTATION_ITEM('')
);
#229=(
BOUNDED_CURVE()
B_SPLINE_CURVE(2,(#635,#636,#637,#638,#639,#640,#641,#642,#643),
 .UNSPECIFIED.,.T.,.F.)
B_SPLINE_CURVE_WITH_KNOTS((3,2,2,2,3),(-28.5700089653497,-26.2138144751574,
-23.857619984965,-21.5014254947727,-19.1452310045804),.UNSPECIFIED.)
CURVE()
GEOMETRIC_REPRESENTATION_ITEM()
RATIONAL_B_SPLINE_CURVE((1.,0.707106781186548,1.,0.707106781186548,1.,0.707106781186548,
1.,0.707106781186548,1.))
REPRESENTATION_ITEM('')
);
#230=(
BOUNDED_CURVE()
B_SPLINE_CURVE(2,(#644,#645,#646,#647,#648,#649,#650,#651,#652),
 .UNSPECIFIED.,.T.,.F.)
B_SPLINE_CURVE_WITH_KNOTS((3,2,2,2,3),(-19.1452310045804,-16.789036514388,
-14.4328420241958,-12.0766475340034,-9.72045304381102),.UNSPECIFIED.)
CURVE()
GEOMETRIC_REPRESENTATION_ITEM()
RATIONAL_B_SPLINE_CURVE((1.,0.707106781186548,1.,0.707106781186548,1.,0.707106781186548,
1.,0.707106781186548,1.))
REPRESENTATION_ITEM('')
);
#231=(
BOUNDED_CURVE()
B_SPLINE_CURVE(1,(#653,#654),.UNSPECIFIED.,.F.,.F.)
B_SPLINE_CURVE_WITH_KNOTS((2,2),(0.,1.),.UNSPECIFIED.)
CURVE()
GEOMETRIC_REPRESENTATION_ITEM()
RATIONAL_B_SPLINE_CURVE((1.,1.))
REPRESENTATION_ITEM('')
);
#232=(
BOUNDED_CURVE()
B_SPLINE_CURVE(2,(#655,#656,#657,#658,#659,#660,#661,#662,#663),
 .UNSPECIFIED.,.T.,.F.)
B_SPLINE_CURVE_WITH_KNOTS((3,2,2,2,3),(-19.1452310045804,-16.789036514388,
-14.4328420241958,-12.0766475340034,-9.72045304381102),.UNSPECIFIED.)
CURVE()
GEOMETRIC_REPRESENTATION_ITEM()
RATIONAL_B_SPLINE_CURVE((1.,0.707106781186548,1.,0.707106781186548,1.,0.707106781186548,
1.,0.707106781186548,1.))
REPRESENTATION_ITEM('')
);
#233=(
BOUNDED_CURVE()
B_SPLINE_CURVE(2,(#664,#665,#666,#667,#668,#669,#670,#671,#672),
 .UNSPECIFIED.,.T.,.F.)
B_SPLINE_CURVE_WITH_KNOTS((3,2,2,2,3),(0.,10.0675878102444,20.1351756204888,
30.2027634307332,40.2703512409776),.UNSPECIFIED.)
CURVE()
GEOMETRIC_REPRESENTATION_ITEM()
RATIONAL_B_SPLINE_CURVE((1.,0.707106781186548,1.,0.707106781186548,1.,0.707106781186548,
1.,0.707106781186548,1.))
REPRESENTATION_ITEM('')
);
#234=(
BOUNDED_CURVE()
B_SPLINE_CURVE(2,(#673,#674,#675),.UNSPECIFIED.,.F.,.F.)
B_SPLINE_CURVE_WITH_KNOTS((3,3),(0.,12.5663706187456),.UNSPECIFIED.)
CURVE()
GEOMETRIC_REPRESENTATION_ITEM()
RATIONAL_B_SPLINE_CURVE((1.,0.707106781186544,1.))
REPRESENTATION_ITEM('')
);
#235=(
BOUNDED_CURVE()
B_SPLINE_CURVE(2,(#676,#677,#678,#679,#680,#681,#682,#683,#684),
 .UNSPECIFIED.,.T.,.F.)
B_SPLINE_CURVE_WITH_KNOTS((3,2,2,2,3),(0.,10.0675878102444,20.1351756204888,
30.2027634307332,40.2703512409776),.UNSPECIFIED.)
CURVE()
GEOMETRIC_REPRESENTATION_ITEM()
RATIONAL_B_SPLINE_CURVE((1.,0.707106781186548,1.,0.707106781186548,1.,0.707106781186548,
1.,0.707106781186548,1.))
REPRESENTATION_ITEM('')
);
#236=(
BOUNDED_CURVE()
B_SPLINE_CURVE(2,(#685,#686,#687,#688,#689,#690,#691,#692,#693),
 .UNSPECIFIED.,.T.,.F.)
B_SPLINE_CURVE_WITH_KNOTS((3,2,2,2,3),(-96.7610537305656,-72.5707902979242,
-48.3805268652828,-24.1902634326414,0.),.UNSPECIFIED.)
CURVE()
GEOMETRIC_REPRESENTATION_ITEM()
RATIONAL_B_SPLINE_CURVE((1.,0.707106781186548,1.,0.707106781186548,1.,0.707106781186548,
1.,0.707106781186548,1.))
REPRESENTATION_ITEM('')
);
#237=(
BOUNDED_CURVE()
B_SPLINE_CURVE(1,(#694,#695),.UNSPECIFIED.,.F.,.F.)
B_SPLINE_CURVE_WITH_KNOTS((2,2),(39.9661868843617,73.9323737687239),
 .UNSPECIFIED.)
CURVE()
GEOMETRIC_REPRESENTATION_ITEM()
RATIONAL_B_SPLINE_CURVE((1.,1.))
REPRESENTATION_ITEM('')
);
#238=(
BOUNDED_CURVE()
B_SPLINE_CURVE(2,(#696,#697,#698,#699,#700,#701,#702,#703,#704),
 .UNSPECIFIED.,.T.,.F.)
B_SPLINE_CURVE_WITH_KNOTS((3,2,2,2,3),(1.46951962260813E-14,16.336149015373,
32.672298030746,49.008447046119,65.344596061492),.UNSPECIFIED.)
CURVE()
GEOMETRIC_REPRESENTATION_ITEM()
RATIONAL_B_SPLINE_CURVE((1.,0.707106781186548,1.,0.707106781186548,1.,0.707106781186548,
1.,0.707106781186548,1.))
REPRESENTATION_ITEM('')
);
#239=(
BOUNDED_CURVE()
B_SPLINE_CURVE(2,(#711,#712,#713,#714,#715,#716,#717,#718,#719),
 .UNSPECIFIED.,.T.,.F.)
B_SPLINE_CURVE_WITH_KNOTS((3,2,2,2,3),(0.,16.336149015373,32.672298030746,
49.008447046119,65.344596061492),.UNSPECIFIED.)
CURVE()
GEOMETRIC_REPRESENTATION_ITEM()
RATIONAL_B_SPLINE_CURVE((1.,0.707106781186548,1.,0.707106781186548,1.,0.707106781186548,
1.,0.707106781186548,1.))
REPRESENTATION_ITEM('')
);
#240=VERTEX_POINT('',#507);
#241=VERTEX_POINT('',#508);
#242=VERTEX_POINT('',#509);
#243=VERTEX_POINT('',#510);
#244=VERTEX_POINT('',#511);
#245=VERTEX_POINT('',#512);
#246=VERTEX_POINT('',#513);
#247=VERTEX_POINT('',#514);
#248=VERTEX_POINT('',#515);
#249=VERTEX_POINT('',#516);
#250=VERTEX_POINT('',#517);
#251=VERTEX_POINT('',#518);
#252=VERTEX_POINT('',#519);
#253=VERTEX_POINT('',#520);
#254=VERTEX_POINT('',#521);
#255=VERTEX_POINT('',#522);
#256=VERTEX_POINT('',#523);
#257=VERTEX_POINT('',#524);
#258=VERTEX_POINT('',#525);
#259=VERTEX_POINT('',#526);
#260=VERTEX_POINT('',#527);
#261=VERTEX_POINT('',#528);
#262=VERTEX_POINT('',#529);
#263=VERTEX_POINT('',#530);
#264=VERTEX_POINT('',#531);
#265=VERTEX_POINT('',#532);
#266=(
BOUNDED_SURFACE()
B_SPLINE_SURFACE(2,2,((#424,#425,#426,#427,#428,#429,#430,#431,#432),(#433,
#434,#435,#436,#437,#438,#439,#440,#441),(#442,#443,#444,#445,#446,#447,
#448,#449,#450)),.UNSPECIFIED.,.F.,.F.,.F.)
B_SPLINE_SURFACE_WITH_KNOTS((3,3),(3,2,2,2,3),(0.,12.5663706187456),(0.,
10.0675878102444,20.1351756204888,30.2027634307332,40.2703512409776),
 .UNSPECIFIED.)
GEOMETRIC_REPRESENTATION_ITEM()
RATIONAL_B_SPLINE_SURFACE(((1.,0.707106781186548,1.,0.707106781186548,1.,
0.707106781186548,1.,0.707106781186548,1.),(0.707106781186544,0.499999999999997,
0.707106781186544,0.499999999999997,0.707106781186544,0.499999999999997,
0.707106781186544,0.499999999999997,0.707106781186544),(1.,0.707106781186548,
1.,0.707106781186548,1.,0.707106781186548,1.,0.707106781186548,1.)))
REPRESENTATION_ITEM('')
SURFACE()
);
#267=(
BOUNDED_SURFACE()
B_SPLINE_SURFACE(2,5,((#453,#454,#455,#456,#457,#458),(#459,#460,#461,#462,
#463,#464),(#465,#466,#467,#468,#469,#470),(#471,#472,#473,#474,#475,#476),
(#477,#478,#479,#480,#481,#482),(#483,#484,#485,#486,#487,#488),(#489,#490,
#491,#492,#493,#494),(#495,#496,#497,#498,#499,#500),(#501,#502,#503,#504,
#505,#506)),.UNSPECIFIED.,.T.,.F.,.F.)
B_SPLINE_SURFACE_WITH_KNOTS((3,2,2,2,3),(6,6),(0.,16.336149015373,32.672298030746,
49.008447046119,65.344596061492),(0.,9.48663751534738),.UNSPECIFIED.)
GEOMETRIC_REPRESENTATION_ITEM()
RATIONAL_B_SPLINE_SURFACE(((1.,1.,1.,1.,1.,1.),(0.707106781186548,0.707106781186548,
0.707106781186548,0.707106781186548,0.707106781186548,0.707106781186548),
(1.,1.,1.,1.,1.,1.),(0.707106781186548,0.707106781186548,0.707106781186548,
0.707106781186548,0.707106781186548,0.707106781186548),(1.,1.,1.,1.,1.,
1.),(0.707106781186548,0.707106781186548,0.707106781186548,0.707106781186548,
0.707106781186548,0.707106781186548),(1.,1.,1.,1.,1.,1.),(0.707106781186548,
0.707106781186548,0.707106781186548,0.707106781186548,0.707106781186548,
0.707106781186548),(1.,1.,1.,1.,1.,1.)))
REPRESENTATION_ITEM('')
SURFACE()
);
#268=PLANE('',#382);
#269=PLANE('',#383);
#270=PLANE('',#385);
#271=PLANE('',#387);
#272=CYLINDRICAL_SURFACE('',#372,5.);
#273=CYLINDRICAL_SURFACE('',#373,17.9454453114985);
#274=CYLINDRICAL_SURFACE('',#374,5.00000000000005);
#275=CYLINDRICAL_SURFACE('',#375,2.94200377007959);
#276=CYLINDRICAL_SURFACE('',#376,4.99999999999986);
#277=CYLINDRICAL_SURFACE('',#377,17.9454453114984);
#278=CYLINDRICAL_SURFACE('',#378,5.00000000000002);
#279=CYLINDRICAL_SURFACE('',#379,2.94200377007959);
#280=CYLINDRICAL_SURFACE('',#380,1.5);
#281=CYLINDRICAL_SURFACE('',#381,1.50000000000003);
#282=CYLINDRICAL_SURFACE('',#384,14.4092903818012);
#283=CYLINDRICAL_SURFACE('',#386,15.4);
#284=SHAPE_DEFINITION_REPRESENTATION(#285,#370);
#285=PRODUCT_DEFINITION_SHAPE('Document','',#287);
#286=PRODUCT_DEFINITION_CONTEXT('3D Mechanical Parts',#359,'design');
#287=PRODUCT_DEFINITION('A','First version',#329,#286);
#288=DATE_TIME_ROLE('classification_date');
#289=DATE_TIME_ROLE('creation_date');
#290=APPLIED_DATE_AND_TIME_ASSIGNMENT(#314,#288,(#293));
#291=APPLIED_DATE_AND_TIME_ASSIGNMENT(#316,#289,(#287));
#292=SECURITY_CLASSIFICATION_LEVEL('unclassified');
#293=SECURITY_CLASSIFICATION('A','Security for version',#292);
#294=APPLIED_SECURITY_CLASSIFICATION_ASSIGNMENT(#293,(#329));
#295=APPROVAL_ROLE('Version approval');
#296=APPROVAL_ROLE('Version Security approval');
#297=APPROVAL_ROLE('Definition approval');
#298=APPROVAL_PERSON_ORGANIZATION(#347,#323,#295);
#299=APPROVAL_PERSON_ORGANIZATION(#348,#324,#296);
#300=APPROVAL_PERSON_ORGANIZATION(#351,#325,#297);
#301=COORDINATED_UNIVERSAL_TIME_OFFSET(5,0,.BEHIND.);
#302=LOCAL_TIME(0,0,0.,#301);
#303=LOCAL_TIME(0,0,0.,#301);
#304=LOCAL_TIME(0,0,0.,#301);
#305=LOCAL_TIME(0,0,0.,#301);
#306=LOCAL_TIME(0,0,0.,#301);
#307=CALENDAR_DATE(1999,1,1);
#308=CALENDAR_DATE(1999,1,1);
#309=CALENDAR_DATE(1999,1,1);
#310=CALENDAR_DATE(1999,1,1);
#311=CALENDAR_DATE(1999,1,1);
#312=DATE_AND_TIME(#307,#302);
#313=DATE_AND_TIME(#308,#303);
#314=DATE_AND_TIME(#309,#304);
#315=DATE_AND_TIME(#310,#305);
#316=DATE_AND_TIME(#311,#306);
#317=APPROVAL_DATE_TIME(#312,#323);
#318=APPROVAL_DATE_TIME(#313,#324);
#319=APPROVAL_DATE_TIME(#315,#325);
#320=APPROVAL_STATUS('not_yet_approved');
#321=APPROVAL_STATUS('not_yet_approved');
#322=APPROVAL_STATUS('approved');
#323=APPROVAL(#320,'Version approval');
#324=APPROVAL(#321,'Version Security approval');
#325=APPROVAL(#322,'Definition approval');
#326=APPLIED_APPROVAL_ASSIGNMENT(#323,(#329));
#327=APPLIED_APPROVAL_ASSIGNMENT(#324,(#293));
#328=APPLIED_APPROVAL_ASSIGNMENT(#325,(#287));
#329=PRODUCT_DEFINITION_FORMATION_WITH_SPECIFIED_SOURCE('A',
'First version',#361,.MADE.);
#330=PERSON_AND_ORGANIZATION_ROLE('design_owner');
#331=PERSON_AND_ORGANIZATION_ROLE('creator');
#332=PERSON_AND_ORGANIZATION_ROLE('design_supplier');
#333=PERSON_AND_ORGANIZATION_ROLE('classification_officer');
#334=PERSON_AND_ORGANIZATION_ROLE('creator');
#335=ORGANIZATION('STI','lab','lab');
#336=ORGANIZATION('STI','unknown','unknown');
#337=ORGANIZATION('STI','unknown','unknown');
#338=ORGANIZATION('STI','unknown','unknown');
#339=ORGANIZATION('STI','unknown','unknown');
#340=ORGANIZATION('STI','unknown','unknown');
#341=ORGANIZATION('STI','unknown','unknown');
#342=PERSON('1','Box','vc60',$,$,$);
#343=PERSON('2','last','first',$,$,$);
#344=PERSON('3','President','Mr.',$,$,$);
#345=PERSON_AND_ORGANIZATION(#342,#335);
#346=PERSON_AND_ORGANIZATION(#343,#336);
#347=PERSON_AND_ORGANIZATION(#344,#337);
#348=PERSON_AND_ORGANIZATION(#344,#338);
#349=PERSON_AND_ORGANIZATION(#344,#339);
#350=PERSON_AND_ORGANIZATION(#343,#340);
#351=PERSON_AND_ORGANIZATION(#344,#341);
#352=APPLIED_PERSON_AND_ORGANIZATION_ASSIGNMENT(#345,#330,(#361));
#353=APPLIED_PERSON_AND_ORGANIZATION_ASSIGNMENT(#346,#331,(#329));
#354=APPLIED_PERSON_AND_ORGANIZATION_ASSIGNMENT(#346,#332,(#329));
#355=APPLIED_PERSON_AND_ORGANIZATION_ASSIGNMENT(#349,#333,(#293));
#356=APPLIED_PERSON_AND_ORGANIZATION_ASSIGNMENT(#350,#334,(#287));
#357=PRODUCT_RELATED_PRODUCT_CATEGORY('detail','detail',(#361));
#358=APPLICATION_PROTOCOL_DEFINITION('International Standard',
'config_control_design',1994,#359);
#359=APPLICATION_CONTEXT(
'configuration controlled 3d designs of mechanical parts and assemblie
s');
#360=PRODUCT_CONTEXT('3D Mechanical Parts',#359,'mechanical');
#361=PRODUCT('Document','Document','',(#360));
#362=(
LENGTH_UNIT()
NAMED_UNIT(*)
SI_UNIT(.MILLI.,.METRE.)
);
#363=(
NAMED_UNIT(*)
PLANE_ANGLE_UNIT()
SI_UNIT($,.RADIAN.)
);
#364=DIMENSIONAL_EXPONENTS(0.,0.,0.,0.,0.,0.,0.);
#365=PLANE_ANGLE_MEASURE_WITH_UNIT(PLANE_ANGLE_MEASURE(0.01745329252),#363);
#366=(
CONVERSION_BASED_UNIT('DEGREES',#365)
NAMED_UNIT(#364)
PLANE_ANGLE_UNIT()
);
#367=(
NAMED_UNIT(*)
SI_UNIT($,.STERADIAN.)
SOLID_ANGLE_UNIT()
);
#368=UNCERTAINTY_MEASURE_WITH_UNIT(LENGTH_MEASURE(0.001),#362,
'DISTANCE_ACCURACY_VALUE',
'Maximum model space distance between geometric entities at asserted c
onnectivities');
#369=(
GEOMETRIC_REPRESENTATION_CONTEXT(3)
GLOBAL_UNCERTAINTY_ASSIGNED_CONTEXT((#368))
GLOBAL_UNIT_ASSIGNED_CONTEXT((#367,#366,#362))
REPRESENTATION_CONTEXT('ID1','3D')
);
#370=SHAPE_REPRESENTATION('Document',(#371,#388),#369);
#371=AXIS2_PLACEMENT_3D('',#409,#389,#390);
#372=AXIS2_PLACEMENT_3D('',#410,#391,$);
#373=AXIS2_PLACEMENT_3D('',#411,#392,$);
#374=AXIS2_PLACEMENT_3D('',#412,#393,$);
#375=AXIS2_PLACEMENT_3D('',#413,#394,$);
#376=AXIS2_PLACEMENT_3D('',#414,#395,$);
#377=AXIS2_PLACEMENT_3D('',#415,#396,$);
#378=AXIS2_PLACEMENT_3D('',#416,#397,$);
#379=AXIS2_PLACEMENT_3D('',#417,#398,$);
#380=AXIS2_PLACEMENT_3D('',#418,#399,$);
#381=AXIS2_PLACEMENT_3D('',#419,#400,$);
#382=AXIS2_PLACEMENT_3D('',#420,#401,$);
#383=AXIS2_PLACEMENT_3D('',#421,#402,$);
#384=AXIS2_PLACEMENT_3D('',#422,#403,$);
#385=AXIS2_PLACEMENT_3D('',#423,#404,$);
#386=AXIS2_PLACEMENT_3D('',#451,#405,$);
#387=AXIS2_PLACEMENT_3D('',#452,#406,$);
#388=AXIS2_PLACEMENT_3D('',#720,#407,#408);
#389=DIRECTION('',(0.,0.,1.));
#390=DIRECTION('',(1.,0.,0.));
#391=DIRECTION('',(7.250606880516E-15,8.38663923607073E-15,-1.));
#392=DIRECTION('',(0.,0.,1.));
#393=DIRECTION('',(0.,0.,-1.));
#394=DIRECTION('',(0.,0.,1.));
#395=DIRECTION('',(0.,0.,-1.));
#396=DIRECTION('',(0.,0.,1.));
#397=DIRECTION('',(0.,0.,-1.));
#398=DIRECTION('',(0.,0.,1.));
#399=DIRECTION('',(-2.36847578586696E-15,-2.36847578586709E-15,-1.));
#400=DIRECTION('',(2.368475785867E-15,2.36847578586705E-15,-1.));
#401=DIRECTION('',(0.,0.,-1.));
#402=DIRECTION('',(0.,0.,1.));
#403=DIRECTION('',(0.,0.,-1.));
#404=DIRECTION('',(0.,0.,1.));
#405=DIRECTION('',(0.,0.,-1.));
#406=DIRECTION('',(0.,0.,-1.));
#407=DIRECTION('',(0.,0.,1.));
#408=DIRECTION('',(1.,0.,0.));
#409=CARTESIAN_POINT('',(0.,0.,0.));
#410=CARTESIAN_POINT('',(178.530896227974,3.8878961952814,52.5000000000003));
#411=CARTESIAN_POINT('',(156.945445311498,-3.89424806420186,52.5000000000002));
#412=CARTESIAN_POINT('',(135.359994395023,3.88789619528145,52.5000000000002));
#413=CARTESIAN_POINT('',(136.945445311498,-3.89424806420176,52.5000000000002));
#414=CARTESIAN_POINT('',(135.359994395023,-11.6763923236848,52.5000000000002));
#415=CARTESIAN_POINT('',(156.945445311498,-3.89424806420188,52.5000000000002));
#416=CARTESIAN_POINT('',(178.530896227974,-11.6763923236849,52.5000000000002));
#417=CARTESIAN_POINT('',(176.945445311499,-3.89424806420175,52.5000000000002));
#418=CARTESIAN_POINT('',(136.945445311498,-3.8942480642019,52.5000000000002));
#419=CARTESIAN_POINT('',(176.945445311498,-3.89424806420188,52.5000000000002));
#420=CARTESIAN_POINT('',(185.622950024098,18.5375585751712,52.0000000000002));
#421=CARTESIAN_POINT('',(185.622950024098,18.5375585751712,53.0000000000002));
#422=CARTESIAN_POINT('',(156.945445311498,-3.89424806420189,52.));
#423=CARTESIAN_POINT('',(174.95705828875,-21.9058610414534,11.033813115638));
#424=CARTESIAN_POINT('',(171.3547356933,-3.89424806420191,19.033813115638));
#425=CARTESIAN_POINT('',(171.3547356933,-18.3035384460031,19.033813115638));
#426=CARTESIAN_POINT('',(156.945445311498,-18.3035384460031,19.033813115638));
#427=CARTESIAN_POINT('',(142.536154929697,-18.3035384460031,19.033813115638));
#428=CARTESIAN_POINT('',(142.536154929697,-3.89424806420187,19.033813115638));
#429=CARTESIAN_POINT('',(142.536154929697,10.5150423175993,19.033813115638));
#430=CARTESIAN_POINT('',(156.945445311498,10.5150423175993,19.033813115638));
#431=CARTESIAN_POINT('',(171.3547356933,10.5150423175993,19.033813115638));
#432=CARTESIAN_POINT('',(171.3547356933,-3.89424806420191,19.033813115638));
#433=CARTESIAN_POINT('',(171.3547356933,-3.89424806420191,11.033813115638));
#434=CARTESIAN_POINT('',(171.3547356933,-18.3035384460032,11.033813115638));
#435=CARTESIAN_POINT('',(156.945445311498,-18.3035384460032,11.033813115638));
#436=CARTESIAN_POINT('',(142.536154929697,-18.3035384460031,11.033813115638));
#437=CARTESIAN_POINT('',(142.536154929697,-3.89424806420188,11.033813115638));
#438=CARTESIAN_POINT('',(142.536154929697,10.5150423175994,11.033813115638));
#439=CARTESIAN_POINT('',(156.945445311498,10.5150423175994,11.033813115638));
#440=CARTESIAN_POINT('',(171.3547356933,10.5150423175994,11.033813115638));
#441=CARTESIAN_POINT('',(171.3547356933,-3.89424806420191,11.033813115638));
#442=CARTESIAN_POINT('',(163.3547356933,-3.89424806420189,11.033813115638));
#443=CARTESIAN_POINT('',(163.3547356933,-10.3035384460032,11.033813115638));
#444=CARTESIAN_POINT('',(156.945445311498,-10.3035384460032,11.033813115638));
#445=CARTESIAN_POINT('',(150.536154929697,-10.3035384460032,11.033813115638));
#446=CARTESIAN_POINT('',(150.536154929697,-3.89424806420189,11.033813115638));
#447=CARTESIAN_POINT('',(150.536154929697,2.51504231759938,11.033813115638));
#448=CARTESIAN_POINT('',(156.945445311498,2.51504231759938,11.033813115638));
#449=CARTESIAN_POINT('',(163.3547356933,2.51504231759938,11.033813115638));
#450=CARTESIAN_POINT('',(163.3547356933,-3.89424806420189,11.033813115638));
#451=CARTESIAN_POINT('',(156.945445311498,-3.89424806420189,31.000000000001));
#452=CARTESIAN_POINT('',(176.195445311498,-23.1442480642019,10.0000000000018));
#453=CARTESIAN_POINT('',(172.345445311498,-3.89424806420186,15.0000000000018));
#454=CARTESIAN_POINT('',(172.345445311498,-3.89424806420186,13.0000000000018));
#455=CARTESIAN_POINT('',(172.345445311498,-3.89424806420186,11.0000000000019));
#456=CARTESIAN_POINT('',(171.345445311498,-3.89424806420186,10.0000000000018));
#457=CARTESIAN_POINT('',(169.345445311498,-3.89424806420186,10.0000000000018));
#458=CARTESIAN_POINT('',(167.345445311498,-3.89424806420186,10.0000000000018));
#459=CARTESIAN_POINT('',(172.345445311498,-19.2942480642018,15.0000000000018));
#460=CARTESIAN_POINT('',(172.345445311498,-19.2942480642018,13.0000000000018));
#461=CARTESIAN_POINT('',(172.345445311498,-19.2942480642018,11.0000000000019));
#462=CARTESIAN_POINT('',(171.345445311498,-18.2942480642019,10.0000000000018));
#463=CARTESIAN_POINT('',(169.345445311498,-16.2942480642019,10.0000000000018));
#464=CARTESIAN_POINT('',(167.345445311498,-14.2942480642019,10.0000000000018));
#465=CARTESIAN_POINT('',(156.945445311498,-19.2942480642019,15.0000000000018));
#466=CARTESIAN_POINT('',(156.945445311498,-19.2942480642019,13.0000000000018));
#467=CARTESIAN_POINT('',(156.945445311498,-19.2942480642019,11.0000000000019));
#468=CARTESIAN_POINT('',(156.945445311498,-18.2942480642019,10.0000000000018));
#469=CARTESIAN_POINT('',(156.945445311498,-16.2942480642019,10.0000000000018));
#470=CARTESIAN_POINT('',(156.945445311498,-14.2942480642019,10.0000000000018));
#471=CARTESIAN_POINT('',(141.545445311498,-19.2942480642019,15.0000000000018));
#472=CARTESIAN_POINT('',(141.545445311498,-19.2942480642019,13.0000000000018));
#473=CARTESIAN_POINT('',(141.545445311498,-19.2942480642019,11.0000000000019));
#474=CARTESIAN_POINT('',(142.545445311498,-18.294248064202,10.0000000000018));
#475=CARTESIAN_POINT('',(144.545445311498,-16.294248064202,10.0000000000018));
#476=CARTESIAN_POINT('',(146.545445311498,-14.294248064202,10.0000000000018));
#477=CARTESIAN_POINT('',(141.545445311498,-3.89424806420193,15.0000000000018));
#478=CARTESIAN_POINT('',(141.545445311498,-3.89424806420193,13.0000000000018));
#479=CARTESIAN_POINT('',(141.545445311498,-3.89424806420193,11.0000000000019));
#480=CARTESIAN_POINT('',(142.545445311498,-3.89424806420192,10.0000000000018));
#481=CARTESIAN_POINT('',(144.545445311498,-3.89424806420192,10.0000000000018));
#482=CARTESIAN_POINT('',(146.545445311498,-3.89424806420192,10.0000000000018));
#483=CARTESIAN_POINT('',(141.545445311498,11.505751935798,15.0000000000018));
#484=CARTESIAN_POINT('',(141.545445311498,11.505751935798,13.0000000000018));
#485=CARTESIAN_POINT('',(141.545445311498,11.505751935798,11.0000000000019));
#486=CARTESIAN_POINT('',(142.545445311498,10.5057519357981,10.0000000000018));
#487=CARTESIAN_POINT('',(144.545445311498,8.50575193579811,10.0000000000018));
#488=CARTESIAN_POINT('',(146.545445311498,6.50575193579811,10.0000000000018));
#489=CARTESIAN_POINT('',(156.945445311498,11.5057519357981,15.0000000000018));
#490=CARTESIAN_POINT('',(156.945445311498,11.5057519357981,13.0000000000018));
#491=CARTESIAN_POINT('',(156.945445311498,11.5057519357981,11.0000000000019));
#492=CARTESIAN_POINT('',(156.945445311498,10.5057519357981,10.0000000000018));
#493=CARTESIAN_POINT('',(156.945445311498,8.50575193579814,10.0000000000018));
#494=CARTESIAN_POINT('',(156.945445311498,6.50575193579814,10.0000000000018));
#495=CARTESIAN_POINT('',(172.345445311498,11.5057519357981,15.0000000000018));
#496=CARTESIAN_POINT('',(172.345445311498,11.5057519357981,13.0000000000018));
#497=CARTESIAN_POINT('',(172.345445311498,11.5057519357981,11.0000000000019));
#498=CARTESIAN_POINT('',(171.345445311498,10.5057519357982,10.0000000000018));
#499=CARTESIAN_POINT('',(169.345445311498,8.50575193579817,10.0000000000018));
#500=CARTESIAN_POINT('',(167.345445311498,6.50575193579817,10.0000000000018));
#501=CARTESIAN_POINT('',(172.345445311498,-3.89424806420186,15.0000000000018));
#502=CARTESIAN_POINT('',(172.345445311498,-3.89424806420186,13.0000000000018));
#503=CARTESIAN_POINT('',(172.345445311498,-3.89424806420186,11.0000000000019));
#504=CARTESIAN_POINT('',(171.345445311498,-3.89424806420186,10.0000000000018));
#505=CARTESIAN_POINT('',(169.345445311498,-3.89424806420186,10.0000000000018));
#506=CARTESIAN_POINT('',(167.345445311498,-3.89424806420186,10.0000000000018));
#507=CARTESIAN_POINT('',(172.345445311498,-3.89424806420188,52.0000000000001));
#508=CARTESIAN_POINT('',(177.532753339621,-1.01146200497613,52.0000000000002));
#509=CARTESIAN_POINT('',(173.827250117942,2.19210338022901,52.0000000000002));
#510=CARTESIAN_POINT('',(173.827250117942,2.19210338022901,53.0000000000002));
#511=CARTESIAN_POINT('',(177.532753339621,-1.01146200497613,53.0000000000002));
#512=CARTESIAN_POINT('',(140.063640505055,2.19210338022907,52.0000000000002));
#513=CARTESIAN_POINT('',(140.063640505055,2.19210338022907,53.0000000000002));
#514=CARTESIAN_POINT('',(136.358137283376,-1.01146200497611,52.0000000000002));
#515=CARTESIAN_POINT('',(136.358137283376,-1.01146200497611,53.0000000000002));
#516=CARTESIAN_POINT('',(136.358137283376,-6.77703412342738,52.0000000000002));
#517=CARTESIAN_POINT('',(136.358137283376,-6.77703412342738,53.0000000000002));
#518=CARTESIAN_POINT('',(140.063640505055,-9.98059950863258,52.0000000000002));
#519=CARTESIAN_POINT('',(140.063640505055,-9.98059950863258,53.0000000000002));
#520=CARTESIAN_POINT('',(173.827250117942,-9.98059950863258,52.0000000000002));
#521=CARTESIAN_POINT('',(173.827250117942,-9.98059950863258,53.0000000000002));
#522=CARTESIAN_POINT('',(177.532753339621,-6.77703412342738,52.0000000000002));
#523=CARTESIAN_POINT('',(177.532753339621,-6.77703412342738,53.0000000000002));
#524=CARTESIAN_POINT('',(135.445445311498,-3.89424806420189,52.0000000000002));
#525=CARTESIAN_POINT('',(135.445445311498,-3.89424806420189,53.0000000000002));
#526=CARTESIAN_POINT('',(178.445445311498,-3.89424806420189,52.0000000000002));
#527=CARTESIAN_POINT('',(178.445445311498,-3.89424806420189,53.0000000000002));
#528=CARTESIAN_POINT('',(171.3547356933,-3.89424806420189,19.033813115638));
#529=CARTESIAN_POINT('',(163.3547356933,-3.89424806420189,11.033813115638));
#530=CARTESIAN_POINT('',(171.3547356933,-3.89424806420188,53.0000000000002));
#531=CARTESIAN_POINT('',(172.345445311498,-3.89424806420187,15.0000000000018));
#532=CARTESIAN_POINT('',(167.345445311498,-3.89424806420186,10.0000000000018));
#533=CARTESIAN_POINT('',(172.345445311498,-3.89424806420188,52.0000000000001));
#534=CARTESIAN_POINT('',(172.345445311498,-19.2942480642019,52.0000000000001));
#535=CARTESIAN_POINT('',(156.945445311498,-19.2942480642019,52.0000000000001));
#536=CARTESIAN_POINT('',(141.545445311498,-19.2942480642019,52.0000000000001));
#537=CARTESIAN_POINT('',(141.545445311498,-3.89424806420187,52.0000000000001));
#538=CARTESIAN_POINT('',(141.545445311498,11.5057519357981,52.0000000000001));
#539=CARTESIAN_POINT('',(156.945445311498,11.5057519357981,52.0000000000001));
#540=CARTESIAN_POINT('',(172.345445311498,11.5057519357981,52.0000000000001));
#541=CARTESIAN_POINT('',(172.345445311498,-3.89424806420188,52.0000000000001));
#542=CARTESIAN_POINT('',(172.345445311498,-3.89424806420188,52.0000000000001));
#543=CARTESIAN_POINT('',(172.345445311498,-3.89424806420187,15.0000000000018));
#544=CARTESIAN_POINT('',(177.532753339621,-1.01146200497613,52.0000000000002));
#545=CARTESIAN_POINT('',(174.780035842619,-0.45065275589277,52.0000000000002));
#546=CARTESIAN_POINT('',(173.827250117942,2.19210338022901,52.0000000000002));
#547=CARTESIAN_POINT('',(173.827250117942,2.19210338022901,52.0000000000002));
#548=CARTESIAN_POINT('',(173.827250117942,2.19210338022901,53.0000000000002));
#549=CARTESIAN_POINT('',(177.532753339621,-1.01146200497613,53.0000000000002));
#550=CARTESIAN_POINT('',(174.780035842619,-0.45065275589277,53.0000000000002));
#551=CARTESIAN_POINT('',(173.827250117942,2.19210338022901,53.0000000000002));
#552=CARTESIAN_POINT('',(177.532753339621,-1.01146200497613,52.0000000000002));
#553=CARTESIAN_POINT('',(177.532753339621,-1.01146200497613,53.0000000000002));
#554=CARTESIAN_POINT('',(173.827250117942,2.19210338022901,52.0000000000002));
#555=CARTESIAN_POINT('',(169.551723068848,14.0511972472965,52.0000000000002));
#556=CARTESIAN_POINT('',(156.945445311498,14.0511972472966,52.0000000000002));
#557=CARTESIAN_POINT('',(144.339167554149,14.0511972472966,52.0000000000002));
#558=CARTESIAN_POINT('',(140.063640505055,2.19210338022907,52.0000000000002));
#559=CARTESIAN_POINT('',(140.063640505055,2.19210338022907,52.0000000000002));
#560=CARTESIAN_POINT('',(140.063640505055,2.19210338022907,53.0000000000002));
#561=CARTESIAN_POINT('',(173.827250117942,2.19210338022901,53.0000000000002));
#562=CARTESIAN_POINT('',(169.551723068848,14.0511972472965,53.0000000000002));
#563=CARTESIAN_POINT('',(156.945445311498,14.0511972472966,53.0000000000002));
#564=CARTESIAN_POINT('',(144.339167554149,14.0511972472966,53.0000000000002));
#565=CARTESIAN_POINT('',(140.063640505055,2.19210338022907,53.0000000000002));
#566=CARTESIAN_POINT('',(140.063640505055,2.19210338022907,52.0000000000002));
#567=CARTESIAN_POINT('',(139.110854780378,-0.450652755892751,52.0000000000002));
#568=CARTESIAN_POINT('',(136.358137283376,-1.01146200497611,52.0000000000002));
#569=CARTESIAN_POINT('',(136.358137283376,-1.01146200497611,52.0000000000002));
#570=CARTESIAN_POINT('',(136.358137283376,-1.01146200497611,53.0000000000002));
#571=CARTESIAN_POINT('',(140.063640505055,2.19210338022907,53.0000000000002));
#572=CARTESIAN_POINT('',(139.110854780378,-0.450652755892751,53.0000000000002));
#573=CARTESIAN_POINT('',(136.358137283376,-1.01146200497611,53.0000000000002));
#574=CARTESIAN_POINT('',(136.358137283376,-1.01146200497611,52.0000000000002));
#575=CARTESIAN_POINT('',(134.003441541419,-1.49118255468912,52.0000000000002));
#576=CARTESIAN_POINT('',(134.003441541419,-3.89424806420168,52.0000000000002));
#577=CARTESIAN_POINT('',(134.003441541419,-6.29731357371423,52.0000000000002));
#578=CARTESIAN_POINT('',(136.358137283376,-6.77703412342738,52.0000000000002));
#579=CARTESIAN_POINT('',(136.358137283376,-6.77703412342738,52.0000000000002));
#580=CARTESIAN_POINT('',(136.358137283376,-6.77703412342738,53.0000000000002));
#581=CARTESIAN_POINT('',(136.358137283376,-1.01146200497611,53.0000000000002));
#582=CARTESIAN_POINT('',(134.003441541419,-1.49118255468912,53.0000000000002));
#583=CARTESIAN_POINT('',(134.003441541419,-3.89424806420168,53.0000000000002));
#584=CARTESIAN_POINT('',(134.003441541419,-6.29731357371423,53.0000000000002));
#585=CARTESIAN_POINT('',(136.358137283376,-6.77703412342738,53.0000000000002));
#586=CARTESIAN_POINT('',(136.358137283376,-6.77703412342738,52.0000000000002));
#587=CARTESIAN_POINT('',(139.110854780378,-7.3378433725107,52.0000000000002));
#588=CARTESIAN_POINT('',(140.063640505055,-9.98059950863258,52.0000000000002));
#589=CARTESIAN_POINT('',(140.063640505055,-9.98059950863258,52.0000000000002));
#590=CARTESIAN_POINT('',(140.063640505055,-9.98059950863258,53.0000000000002));
#591=CARTESIAN_POINT('',(136.358137283376,-6.77703412342738,53.0000000000002));
#592=CARTESIAN_POINT('',(139.110854780378,-7.3378433725107,53.0000000000002));
#593=CARTESIAN_POINT('',(140.063640505055,-9.98059950863258,53.0000000000002));
#594=CARTESIAN_POINT('',(140.063640505055,-9.98059950863258,52.0000000000002));
#595=CARTESIAN_POINT('',(144.339167554149,-21.8396933757003,52.0000000000002));
#596=CARTESIAN_POINT('',(156.945445311498,-21.8396933757003,52.0000000000002));
#597=CARTESIAN_POINT('',(169.551723068848,-21.8396933757003,52.0000000000002));
#598=CARTESIAN_POINT('',(173.827250117942,-9.98059950863258,52.0000000000002));
#599=CARTESIAN_POINT('',(173.827250117942,-9.98059950863258,52.0000000000002));
#600=CARTESIAN_POINT('',(173.827250117942,-9.98059950863258,53.0000000000002));
#601=CARTESIAN_POINT('',(140.063640505055,-9.98059950863258,53.0000000000002));
#602=CARTESIAN_POINT('',(144.339167554149,-21.8396933757003,53.0000000000002));
#603=CARTESIAN_POINT('',(156.945445311498,-21.8396933757003,53.0000000000002));
#604=CARTESIAN_POINT('',(169.551723068848,-21.8396933757003,53.0000000000002));
#605=CARTESIAN_POINT('',(173.827250117942,-9.98059950863258,53.0000000000002));
#606=CARTESIAN_POINT('',(173.827250117942,-9.98059950863258,52.0000000000002));
#607=CARTESIAN_POINT('',(174.780035842619,-7.33784337251071,52.0000000000002));
#608=CARTESIAN_POINT('',(177.532753339621,-6.77703412342738,52.0000000000002));
#609=CARTESIAN_POINT('',(177.532753339621,-6.77703412342738,52.0000000000002));
#610=CARTESIAN_POINT('',(177.532753339621,-6.77703412342738,53.0000000000002));
#611=CARTESIAN_POINT('',(173.827250117942,-9.98059950863258,53.0000000000002));
#612=CARTESIAN_POINT('',(174.780035842619,-7.33784337251071,53.0000000000002));
#613=CARTESIAN_POINT('',(177.532753339621,-6.77703412342738,53.0000000000002));
#614=CARTESIAN_POINT('',(177.532753339621,-6.77703412342738,52.0000000000002));
#615=CARTESIAN_POINT('',(179.887449081578,-6.2973135737143,52.0000000000002));
#616=CARTESIAN_POINT('',(179.887449081578,-3.89424806420172,52.0000000000002));
#617=CARTESIAN_POINT('',(179.887449081578,-1.49118255468914,52.0000000000002));
#618=CARTESIAN_POINT('',(177.532753339621,-1.01146200497613,52.0000000000002));
#619=CARTESIAN_POINT('',(177.532753339621,-6.77703412342738,53.0000000000002));
#620=CARTESIAN_POINT('',(179.887449081578,-6.2973135737143,53.0000000000002));
#621=CARTESIAN_POINT('',(179.887449081578,-3.89424806420172,53.0000000000002));
#622=CARTESIAN_POINT('',(179.887449081578,-1.49118255468914,53.0000000000002));
#623=CARTESIAN_POINT('',(177.532753339621,-1.01146200497613,53.0000000000002));
#624=CARTESIAN_POINT('',(135.445445311498,-3.89424806420189,52.0000000000002));
#625=CARTESIAN_POINT('',(135.445445311499,-2.39424806420188,52.0000000000002));
#626=CARTESIAN_POINT('',(136.945445311498,-2.39424806420189,52.0000000000002));
#627=CARTESIAN_POINT('',(138.445445311499,-2.39424806420188,52.0000000000002));
#628=CARTESIAN_POINT('',(138.445445311498,-3.89424806420189,52.0000000000002));
#629=CARTESIAN_POINT('',(138.445445311499,-5.39424806420182,52.0000000000002));
#630=CARTESIAN_POINT('',(136.945445311498,-5.39424806420189,52.0000000000002));
#631=CARTESIAN_POINT('',(135.445445311499,-5.39424806420182,52.0000000000002));
#632=CARTESIAN_POINT('',(135.445445311498,-3.89424806420189,52.0000000000002));
#633=CARTESIAN_POINT('',(135.445445311498,-3.89424806420189,52.0000000000002));
#634=CARTESIAN_POINT('',(135.445445311498,-3.89424806420189,53.0000000000002));
#635=CARTESIAN_POINT('',(135.445445311498,-3.89424806420189,53.0000000000002));
#636=CARTESIAN_POINT('',(135.445445311499,-2.39424806420188,53.0000000000002));
#637=CARTESIAN_POINT('',(136.945445311498,-2.39424806420189,53.0000000000002));
#638=CARTESIAN_POINT('',(138.445445311499,-2.39424806420188,53.0000000000002));
#639=CARTESIAN_POINT('',(138.445445311498,-3.89424806420189,53.0000000000002));
#640=CARTESIAN_POINT('',(138.445445311499,-5.39424806420182,53.0000000000002));
#641=CARTESIAN_POINT('',(136.945445311498,-5.39424806420189,53.0000000000002));
#642=CARTESIAN_POINT('',(135.445445311499,-5.39424806420182,53.0000000000002));
#643=CARTESIAN_POINT('',(135.445445311498,-3.89424806420189,53.0000000000002));
#644=CARTESIAN_POINT('',(178.445445311498,-3.89424806420189,52.0000000000002));
#645=CARTESIAN_POINT('',(178.445445311498,-5.39424806420182,52.0000000000002));
#646=CARTESIAN_POINT('',(176.945445311498,-5.39424806420189,52.0000000000002));
#647=CARTESIAN_POINT('',(175.445445311498,-5.39424806420182,52.0000000000002));
#648=CARTESIAN_POINT('',(175.445445311498,-3.89424806420189,52.0000000000002));
#649=CARTESIAN_POINT('',(175.445445311498,-2.39424806420188,52.0000000000002));
#650=CARTESIAN_POINT('',(176.945445311498,-2.39424806420189,52.0000000000002));
#651=CARTESIAN_POINT('',(178.445445311498,-2.39424806420188,52.0000000000002));
#652=CARTESIAN_POINT('',(178.445445311498,-3.89424806420189,52.0000000000002));
#653=CARTESIAN_POINT('',(178.445445311498,-3.89424806420189,52.0000000000002));
#654=CARTESIAN_POINT('',(178.445445311498,-3.89424806420189,53.0000000000002));
#655=CARTESIAN_POINT('',(178.445445311498,-3.89424806420189,53.0000000000002));
#656=CARTESIAN_POINT('',(178.445445311498,-5.39424806420182,53.0000000000002));
#657=CARTESIAN_POINT('',(176.945445311498,-5.39424806420189,53.0000000000002));
#658=CARTESIAN_POINT('',(175.445445311498,-5.39424806420182,53.0000000000002));
#659=CARTESIAN_POINT('',(175.445445311498,-3.89424806420189,53.0000000000002));
#660=CARTESIAN_POINT('',(175.445445311498,-2.39424806420188,53.0000000000002));
#661=CARTESIAN_POINT('',(176.945445311498,-2.39424806420189,53.0000000000002));
#662=CARTESIAN_POINT('',(178.445445311498,-2.39424806420188,53.0000000000002));
#663=CARTESIAN_POINT('',(178.445445311498,-3.89424806420189,53.0000000000002));
#664=CARTESIAN_POINT('',(171.3547356933,-3.89424806420191,19.033813115638));
#665=CARTESIAN_POINT('',(171.3547356933,-18.3035384460031,19.033813115638));
#666=CARTESIAN_POINT('',(156.945445311498,-18.3035384460031,19.033813115638));
#667=CARTESIAN_POINT('',(142.536154929697,-18.3035384460031,19.033813115638));
#668=CARTESIAN_POINT('',(142.536154929697,-3.89424806420187,19.033813115638));
#669=CARTESIAN_POINT('',(142.536154929697,10.5150423175993,19.033813115638));
#670=CARTESIAN_POINT('',(156.945445311498,10.5150423175993,19.033813115638));
#671=CARTESIAN_POINT('',(171.3547356933,10.5150423175993,19.033813115638));
#672=CARTESIAN_POINT('',(171.3547356933,-3.89424806420191,19.033813115638));
#673=CARTESIAN_POINT('',(171.3547356933,-3.89424806420189,19.033813115638));
#674=CARTESIAN_POINT('',(171.3547356933,-3.8942480642019,11.033813115638));
#675=CARTESIAN_POINT('',(163.3547356933,-3.89424806420189,11.033813115638));
#676=CARTESIAN_POINT('',(163.3547356933,-3.89424806420189,11.033813115638));
#677=CARTESIAN_POINT('',(163.3547356933,-10.3035384460032,11.033813115638));
#678=CARTESIAN_POINT('',(156.945445311498,-10.3035384460032,11.0338131156381));
#679=CARTESIAN_POINT('',(150.536154929697,-10.3035384460032,11.0338131156381));
#680=CARTESIAN_POINT('',(150.536154929697,-3.89424806420189,11.0338131156381));
#681=CARTESIAN_POINT('',(150.536154929697,2.51504231759938,11.0338131156381));
#682=CARTESIAN_POINT('',(156.945445311498,2.51504231759938,11.0338131156381));
#683=CARTESIAN_POINT('',(163.3547356933,2.51504231759939,11.033813115638));
#684=CARTESIAN_POINT('',(163.3547356933,-3.89424806420189,11.033813115638));
#685=CARTESIAN_POINT('',(171.3547356933,-3.89424806420188,53.0000000000002));
#686=CARTESIAN_POINT('',(171.3547356933,-18.3035384460031,53.0000000000002));
#687=CARTESIAN_POINT('',(156.945445311498,-18.3035384460031,53.0000000000002));
#688=CARTESIAN_POINT('',(142.536154929697,-18.3035384460031,53.0000000000002));
#689=CARTESIAN_POINT('',(142.536154929697,-3.89424806420187,53.0000000000002));
#690=CARTESIAN_POINT('',(142.536154929697,10.5150423175993,53.0000000000002));
#691=CARTESIAN_POINT('',(156.945445311498,10.5150423175993,53.0000000000002));
#692=CARTESIAN_POINT('',(171.3547356933,10.5150423175993,53.0000000000002));
#693=CARTESIAN_POINT('',(171.3547356933,-3.89424806420188,53.0000000000002));
#694=CARTESIAN_POINT('',(171.3547356933,-3.89424806420188,53.0000000000002));
#695=CARTESIAN_POINT('',(171.3547356933,-3.89424806420189,19.033813115638));
#696=CARTESIAN_POINT('',(172.345445311498,-3.89424806420188,15.0000000000018));
#697=CARTESIAN_POINT('',(172.345445311498,-19.2942480642018,15.0000000000018));
#698=CARTESIAN_POINT('',(156.945445311498,-19.2942480642019,15.0000000000018));
#699=CARTESIAN_POINT('',(141.545445311498,-19.2942480642019,15.0000000000018));
#700=CARTESIAN_POINT('',(141.545445311498,-3.89424806420195,15.0000000000018));
#701=CARTESIAN_POINT('',(141.545445311498,11.505751935798,15.0000000000018));
#702=CARTESIAN_POINT('',(156.945445311498,11.5057519357981,15.0000000000018));
#703=CARTESIAN_POINT('',(172.345445311498,11.5057519357982,15.0000000000018));
#704=CARTESIAN_POINT('',(172.345445311498,-3.89424806420178,15.0000000000018));
#705=CARTESIAN_POINT('',(172.345445311498,-3.89424806420187,15.0000000000018));
#706=CARTESIAN_POINT('',(172.345445311498,-3.89424806420186,13.0000000000018));
#707=CARTESIAN_POINT('',(172.345445311498,-3.89424806420186,11.0000000000019));
#708=CARTESIAN_POINT('',(171.345445311498,-3.89424806420186,10.0000000000018));
#709=CARTESIAN_POINT('',(169.345445311498,-3.89424806420186,10.0000000000018));
#710=CARTESIAN_POINT('',(167.345445311498,-3.89424806420186,10.0000000000018));
#711=CARTESIAN_POINT('',(167.345445311498,-3.89424806420186,10.0000000000018));
#712=CARTESIAN_POINT('',(167.345445311498,-14.2942480642019,10.0000000000018));
#713=CARTESIAN_POINT('',(156.945445311498,-14.2942480642019,10.0000000000018));
#714=CARTESIAN_POINT('',(146.545445311498,-14.294248064202,10.0000000000018));
#715=CARTESIAN_POINT('',(146.545445311498,-3.89424806420192,10.0000000000018));
#716=CARTESIAN_POINT('',(146.545445311498,6.50575193579811,10.0000000000018));
#717=CARTESIAN_POINT('',(156.945445311498,6.50575193579814,10.0000000000018));
#718=CARTESIAN_POINT('',(167.345445311498,6.50575193579817,10.0000000000018));
#719=CARTESIAN_POINT('',(167.345445311498,-3.89424806420186,10.0000000000018));
#720=CARTESIAN_POINT('',(0.,0.,0.));
ENDSEC;
END-ISO-10303-21;
